<svg width="85" height="41" viewBox="0 0 85 41" fill="none" xmlns="http://www.w3.org/2000/svg">
<g opacity="0.3" clip-path="url(#clip0_16_13329)">
<path d="M66.223 21.3273V22.4252L66.1195 22.6448C66.218 23.3688 66.1826 23.9909 66.011 24.5164C66.0312 25.3633 65.9605 26.0926 65.7989 26.7147C65.4582 27.0571 65.2462 27.4283 65.1629 27.8126C65.9706 27.7812 66.5385 27.3786 66.8616 26.6023V26.2755L66.7581 25.0653C66.7682 24.5948 66.7985 24.1922 66.8616 23.8602V21.6567C66.8313 20.977 66.8667 20.3915 66.9701 19.8975L66.5461 19.7903L66.2255 21.3299L66.223 21.3273ZM54.0188 18.5774C52.8653 21.3639 53.1859 23.4865 54.9704 24.9555C54.4984 23.8733 54.2813 22.8879 54.3344 21.986L54.8669 21.6541C56.5531 21.837 57.439 21.1025 57.5223 19.4557C57.0251 18.2664 56.177 17.7514 54.9704 17.9161L54.0188 18.5748V18.5774ZM61.6594 15.7204C61.3792 16.5568 61.2707 16.5568 61.3439 15.7204H61.6594ZM61.6594 11.1067C61.5508 11.5668 61.4044 11.5668 61.2353 11.1067H61.6594ZM61.3439 9.01556C61.624 9.12796 61.624 9.24036 61.3439 9.3423V9.01556ZM61.1318 7.47855C61.4852 7.59095 61.5938 7.81052 61.4473 8.13726C61.147 8.01964 61.0384 7.80006 61.1318 7.47855ZM50.8359 6.70743C50.7425 7.19101 50.7072 7.59095 50.7274 7.91769V8.57641C50.4522 9.53051 50.3866 10.448 50.5154 11.3263L50.4068 11.5459C50.4371 12.1837 50.4068 12.73 50.3033 13.1901L50.4068 13.4096V14.5075C50.7021 15.6393 50.8107 16.63 50.7274 17.477L51.1514 17.5894L51.26 17.2574L51.472 17.0378L51.5755 16.7111L51.684 16.4863C51.8228 15.9243 51.9642 15.4825 52.1081 15.1662L52.4236 14.5075C52.3453 14.4369 52.31 14.3637 52.3201 14.2879L52.2116 13.9612L52.4236 13.0829V11.6504L51.896 11.1041C52.3883 9.83373 52.3201 8.73586 51.684 7.80268L51.5755 6.81721L50.8359 6.70481V6.70743ZM61.6594 6.38068C62.0178 6.57934 61.9799 6.72311 61.5559 6.81983L61.6594 6.38068ZM61.4473 2.7525C62.0178 3.10539 62.0178 3.58374 61.4473 4.18234C61.2555 3.65693 61.2555 3.18119 61.4473 2.7525ZM63.4667 1.65464H62.0834L60.9198 1.76181C60.1802 1.60497 59.5442 1.64418 59.009 1.87421V2.20096C59.5946 2.46497 60.054 2.83354 60.3847 3.30405L60.4932 5.72196L60.3847 6.04871V6.70743L60.2812 7.0394C60.3998 7.57003 60.3998 8.04578 60.2812 8.46401L60.3847 10.3356L60.2812 10.9943L60.3847 11.5459L60.4932 12.2046L60.3847 12.5313V13.4096L60.2812 15.1688L60.1727 15.608C60.2459 16.1987 60.2459 16.7111 60.1727 17.1502C60.1828 18.3945 60.1096 19.2727 59.9606 19.7877L60.1727 20.4464C60.0111 21.1757 59.9404 21.8031 59.9606 22.3128C59.2261 23.6407 58.2669 24.5948 57.0932 25.1751V25.7214C58.7541 25.656 60.0641 24.9973 61.0208 23.7426L61.1293 23.4106L61.5534 22.6448L61.9774 20.8856V20.1144L62.0809 19.7877L62.2929 18.9094C62.3232 17.9658 62.3964 17.1946 62.505 16.5987V15.8275C62.4696 15.0878 62.4999 14.4657 62.6135 13.9612V12.4242C62.6034 11.4492 62.6387 10.6441 62.717 10.0062C62.6387 9.42856 62.6387 8.91361 62.717 8.4614V7.91508L62.6135 7.5831L62.717 7.25636V6.48524L62.6135 6.15849V4.94823C62.7422 4.27906 62.7801 3.73274 62.717 3.30143L63.0376 2.74989C64.4511 2.51986 64.7338 2.08071 63.8857 1.43245L63.4616 1.65202L63.4667 1.65464ZM66.122 0.337201C66.4123 0.899203 66.589 1.45336 66.6496 1.984C66.5713 2.66363 66.536 3.25438 66.5461 3.74842V9.0234C66.5158 9.57494 66.5511 10.0533 66.6496 10.4558V11.9955L66.5461 12.3222V12.8738L66.7581 13.6397L66.6496 13.9716C66.7228 14.4918 66.7581 14.9362 66.7581 15.2891H67.1822C67.109 14.7114 67.1468 14.2017 67.2857 13.7494L67.3942 13.0907L67.2857 12.5392C67.2276 11.7994 67.2276 11.1721 67.2857 10.6728L67.1822 10.0141V7.37137L67.2857 5.94676V4.18757L67.3942 3.74842L67.2857 3.41645C67.2958 2.87536 67.3311 2.43098 67.3942 2.09901V0.990692C67.0989 0.394708 66.7102 0.0627351 66.223 0L66.1195 0.331973L66.122 0.337201ZM37.6903 21.1862C38.031 21.3482 37.9957 21.4554 37.5817 21.5181L37.6903 21.1862ZM48.5112 2.49895C47.5318 2.80478 46.6131 2.91195 45.7523 2.83092L45.4368 3.15767V3.59681C46.0224 3.61772 46.4818 3.76411 46.8125 4.03596L47.133 7.66414L47.0245 7.88371V11.0727C47.128 12.053 47.128 12.8999 47.0245 13.5978L47.133 14.037V16.8993L47.0245 17.3384V18.2167L47.133 18.5434V19.095C46.9664 20.0961 46.9008 20.9065 46.921 21.5129C45.9366 23.4682 44.4877 24.4223 42.5694 24.37C41.0019 24.3595 39.8358 23.7374 39.0659 22.5036V22.0645C38.9877 21.9573 38.9523 21.8501 38.9624 21.7325V21.2933L38.7504 20.9614C38.869 20.002 38.869 19.1917 38.7504 18.5434L38.8539 18.2167V17.0064C38.9675 16.5987 38.9978 16.2353 38.9624 15.9086C38.8185 15.3832 38.7807 14.9127 38.8539 14.4761V13.9298L38.7504 13.3783V13.0515C38.8488 12.7457 38.8842 12.4555 38.8539 12.1732V10.6362L38.7504 10.0847V9.53835C38.6368 9.07829 38.6368 8.67574 38.7504 8.32808C38.6166 7.75563 38.5788 7.24068 38.6419 6.78846L38.5384 6.45649C38.5737 5.68537 38.5434 5.02404 38.4298 4.47772C38.8135 3.91572 39.2729 3.58374 39.8131 3.49225L39.9165 3.16028L39.389 2.83354H37.7937L35.9865 2.94071C35.6255 3.03742 35.3075 3.07402 35.0349 3.05311C34.5906 3.58374 34.6613 3.95493 35.2469 4.15097C35.8628 4.1928 36.2515 4.48295 36.4105 5.02926V6.12713L36.5191 6.45387L36.6226 9.31616L36.7311 9.53573C36.6907 10.1422 36.726 10.6885 36.8346 11.1799C36.7765 11.8622 36.7765 12.4503 36.8346 12.9391V14.3716C36.9179 14.4474 36.9532 14.5153 36.9431 14.5911L36.8346 14.9231C36.9482 15.77 36.986 16.4993 36.9431 17.1215V17.4482C36.9633 18.3814 36.8901 19.1525 36.7311 19.7589V20.0857C36.8144 20.896 36.8447 21.5547 36.8346 22.0697C37.5641 23.3244 38.5207 24.2027 39.702 24.7072C42.8168 25.5123 45.3636 24.9267 47.3476 22.948L47.4511 22.616L47.7716 21.8501C47.7716 21.4162 47.8398 21.0136 47.9837 20.6398C47.9837 20.1563 48.019 19.7563 48.0871 19.4296C47.9988 18.9904 47.9988 18.6245 48.0871 18.3317L48.1957 17.673C48.1225 16.9934 48.1225 16.4078 48.1957 15.9138V13.8226L48.0871 13.3835V12.6176L48.1957 11.9589V11.3002L48.0871 10.7486V9.2116C47.9988 8.62608 47.9988 8.11374 48.0871 7.67198L47.9837 7.34001L48.0871 6.90086V6.57412C47.8953 6.01734 47.8297 5.54421 47.8751 5.14428L47.7716 4.37839C48.2638 3.84252 48.7611 3.43997 49.2558 3.16812C49.1044 2.7708 48.857 2.55123 48.5112 2.5094V2.49895ZM22.9746 1.33573C17.9995 5.73765 16.374 11.2688 18.0929 17.937V18.5957C18.2949 18.993 18.3984 19.3616 18.4084 19.6936C18.6735 19.9681 18.8476 20.2608 18.941 20.5719C19.9406 21.4293 20.6852 22.2396 21.1724 22.9898H21.4879C22.2376 23.3479 22.9115 23.5309 23.5072 23.5413C24.6001 24.0014 25.6603 24.221 26.6901 24.2001C27.2278 23.9047 27.72 23.7217 28.1743 23.6485C28.6286 23.3584 29.0552 23.178 29.4465 23.1022L29.555 22.7702L30.1911 22.3311L30.5066 22.2239L30.7186 22.0043C31.3446 21.709 31.8419 21.4136 32.2053 21.126C32.0766 20.6111 31.7611 20.4281 31.2537 20.5745C28.7069 23.4211 26.2282 24.085 23.8202 22.5533C22.1442 21.4659 21.19 20.002 20.9578 18.1592C20.3015 16.664 20.0517 15.195 20.2132 13.7625L20.3217 12.0033C20.2485 11.457 20.2485 10.9786 20.3217 10.5735L20.4252 10.2415V9.91476L20.5338 9.47561V8.70449L20.6373 7.9386L20.7458 5.95983C22.7979 0.96978 25.8067 0.311061 29.7695 3.97584C30.2466 3.92356 30.3501 3.66478 30.0851 3.20472C30.0068 3.12891 29.9715 3.06095 29.9816 2.98514L29.7695 2.87274C29.4742 2.17482 29.189 1.62327 28.9214 1.22856C27.9269 1.71215 27.0435 1.63634 26.2661 1.00899C25.7234 0.988078 25.2615 0.912273 24.8828 0.789417L22.9721 1.33573H22.9746Z" fill="#231F20"/>
<path d="M49.4174 35.8897L49.5133 35.9263C49.5284 35.8191 49.5284 35.7616 49.5133 35.7485C49.4981 35.7355 49.4653 35.7825 49.4174 35.8897ZM51.7269 38.1089C51.631 38.2971 51.5301 38.4853 51.419 38.6736C51.3079 38.8618 51.1893 39.029 51.0631 39.1754C50.9369 39.3218 50.8082 39.4447 50.6794 39.544C50.5482 39.6433 50.4169 39.6956 50.2831 39.7035C50.1494 39.7113 50.0282 39.6799 49.9222 39.6041C49.8162 39.5309 49.7253 39.4264 49.6496 39.2904C49.5739 39.1545 49.5133 38.9977 49.4653 38.8173C49.4174 38.637 49.382 38.4409 49.3593 38.2292C49.6445 38.1795 49.9071 38.1168 50.1468 38.0384C50.3892 37.9599 50.634 37.8423 50.8864 37.6829C51.1388 37.5234 51.4064 37.3117 51.6866 37.0451C51.9667 36.7784 52.2924 36.4334 52.6634 36.0099L51.7269 38.1063V38.1089ZM49.4174 35.8897C49.3063 36.1276 49.2255 36.4203 49.1751 36.7732C49.1246 37.1261 49.1145 37.4842 49.1448 37.8528C49.1044 37.8449 49.0615 37.8397 49.0135 37.8397C48.9731 37.8397 48.9353 37.8345 48.8949 37.8266C48.6172 37.7953 48.385 37.6829 48.1957 37.4947C48.0064 37.3064 47.8726 37.0712 47.7918 36.7889C47.7136 36.5066 47.6883 36.1929 47.7212 35.8452C47.754 35.4976 47.8524 35.1525 48.0165 34.8075C48.0316 34.7657 48.0493 34.7291 48.0695 34.6899C48.0897 34.6533 48.1073 34.6141 48.1225 34.5722C48.39 34.5644 48.6929 34.5592 49.0287 34.5539C49.3644 34.5513 49.7026 34.5487 50.0408 34.5487H52.9915C53.0774 34.5487 53.1278 34.567 53.1405 34.6036C53.1531 34.6402 53.1405 34.7082 53.1001 34.8049C53.0521 34.9199 52.9941 35.0401 52.9284 35.1682C52.8603 35.2937 52.7921 35.4166 52.7215 35.5368C52.6508 35.6544 52.5826 35.7616 52.5195 35.8557C52.4564 35.9498 52.4059 36.0178 52.3656 36.0596C52.2318 36.206 52.0652 36.3811 51.8683 36.5798C51.6714 36.781 51.4442 36.9719 51.1868 37.1575C50.9293 37.343 50.6466 37.4999 50.3336 37.6358C50.0206 37.7717 49.6875 37.8423 49.3316 37.8502C49.3164 37.5391 49.324 37.215 49.3543 36.8751C49.3871 36.5353 49.4376 36.2243 49.5082 35.9367L49.4123 35.8871L49.4174 35.8897ZM54.0845 34.5409C54.2511 34.5409 54.3975 34.5409 54.5287 34.5461C54.66 34.5513 54.771 34.5566 54.867 34.5644C55.2229 34.6141 55.3996 34.7892 55.3996 35.0924C55.3996 35.4924 55.185 35.9184 54.7609 36.368C54.6978 36.4491 54.665 36.5118 54.665 36.551C54.665 36.5589 54.6726 36.5641 54.6878 36.5641C54.718 36.5641 54.771 36.5275 54.8417 36.4543C55.2203 36.0857 55.45 35.8034 55.5283 35.6074C55.5687 35.5263 55.5863 35.427 55.5863 35.312C55.5863 35.1499 55.5434 34.9931 55.4551 34.8467C55.3693 34.7003 55.2658 34.5775 55.1471 34.4781C55.1951 34.4703 55.2102 34.4625 55.1951 34.4546C55.18 34.4468 55.1522 34.4363 55.1118 34.4232C55.0714 34.4102 55.0285 34.3997 54.9805 34.3867C54.9326 34.3736 54.9023 34.3605 54.8846 34.3448C54.718 34.3135 54.5691 34.2925 54.4353 34.2899C54.3016 34.2847 54.1274 34.2899 53.9128 34.3082C53.4938 34.3004 53.0395 34.2952 52.5498 34.2952H51.0581C50.5532 34.2952 50.061 34.2952 49.584 34.3004C49.1069 34.303 48.6728 34.3056 48.2866 34.3056C48.5718 33.8795 48.8974 33.5502 49.2684 33.3175C49.6395 33.0849 50.0105 32.9202 50.3816 32.8209C50.7526 32.7216 51.1035 32.6745 51.4367 32.6745C51.7699 32.6745 52.0298 32.6902 52.2192 32.7242C52.2974 32.732 52.3681 32.7216 52.4261 32.6876C52.4842 32.6562 52.5271 32.617 52.5498 32.5699C52.5725 32.5255 52.5751 32.4811 52.5549 32.434C52.5347 32.3896 52.4867 32.353 52.4059 32.3295C52.2393 32.2876 52.0728 32.2197 51.9036 32.1203C51.7345 32.021 51.5806 31.8955 51.4417 31.7413C51.3029 31.5871 51.1918 31.4015 51.1111 31.1898C51.0278 30.978 50.9949 30.7349 51.0101 30.4657C51.0252 30.1703 51.1035 29.9272 51.2423 29.7364C51.3811 29.5456 51.5452 29.394 51.7345 29.2894C51.9238 29.1823 52.1182 29.1221 52.3151 29.1065C52.512 29.0908 52.6836 29.1091 52.8249 29.1666C52.9915 29.2241 53.1228 29.3234 53.2212 29.4619C53.3197 29.6005 53.3777 29.7573 53.3929 29.9272C53.408 30.0344 53.4408 30.0893 53.4938 30.0919C53.5443 30.0971 53.5898 30.0684 53.6301 30.0135C53.6705 29.956 53.6983 29.8776 53.7185 29.7809C53.7387 29.6815 53.7235 29.5848 53.6781 29.4855C53.615 29.3208 53.5065 29.1718 53.3525 29.0306C53.1985 28.8921 53.0117 28.8189 52.7896 28.8085C52.5852 28.8006 52.363 28.832 52.1258 28.8999C51.8885 28.9705 51.6664 29.0751 51.4569 29.2136C51.2474 29.3522 51.0631 29.5221 50.899 29.7233C50.7375 29.9246 50.6239 30.1494 50.5608 30.403C50.5128 30.6147 50.5053 30.8081 50.5381 30.9807C50.5684 31.1532 50.6189 31.3022 50.687 31.4355C50.7552 31.5662 50.8284 31.6786 50.9117 31.7727C50.9949 31.8668 51.0606 31.9426 51.106 32.0001C51.1363 32.0236 51.1388 32.0681 51.1111 32.1282C51.0833 32.1909 51.0353 32.2327 50.9621 32.2563C50.6845 32.3216 50.4043 32.421 50.114 32.5517C49.8263 32.6824 49.5461 32.8392 49.2735 33.0169C49.0009 33.1973 48.746 33.396 48.5087 33.6129C48.2714 33.8299 48.067 34.0599 47.8928 34.3056C47.6252 34.3135 47.3981 34.3187 47.2163 34.3187H46.8377C46.6787 34.3265 46.5752 34.3422 46.5247 34.3605C46.4742 34.3814 46.4313 34.4494 46.401 34.5618C46.3859 34.6115 46.3935 34.6637 46.4238 34.7212C46.4566 34.7787 46.4944 34.8284 46.5424 34.8676C46.5903 34.9094 46.6383 34.9382 46.6913 34.9591C46.7418 34.98 46.7847 34.9696 46.815 34.9277C46.863 34.8702 46.9084 34.8153 46.9513 34.7631C46.9942 34.7108 47.0472 34.6716 47.1103 34.6454C47.1406 34.6298 47.2088 34.6193 47.3122 34.6141C47.4157 34.6088 47.5445 34.6036 47.7035 34.5958C47.4511 35.0218 47.2895 35.4453 47.2189 35.8714C47.1482 36.2975 47.1608 36.6843 47.2618 37.0294C47.3602 37.377 47.5394 37.6646 47.7944 37.8894C48.0518 38.1142 48.38 38.2396 48.7838 38.2632H48.9857C49.0564 38.2632 49.1271 38.2579 49.1978 38.2501C49.2306 38.4801 49.2735 38.6945 49.3341 38.8931C49.3947 39.0944 49.4679 39.2669 49.5587 39.4133C49.6496 39.5597 49.7556 39.6747 49.8793 39.7557C50.0004 39.8368 50.1418 39.8707 50.3008 39.8551C50.5684 39.8315 50.8132 39.7087 51.0353 39.4865C51.2575 39.2669 51.4493 39.0212 51.6159 38.7494C51.6638 38.684 51.7093 38.616 51.7522 38.5481C51.7951 38.4775 51.833 38.4069 51.8658 38.3337C51.9289 38.2109 51.9895 38.0906 52.0425 37.973C52.098 37.8554 52.1485 37.7456 52.1964 37.6489C52.3302 37.3796 52.469 37.0947 52.6104 36.7967C52.7517 36.4987 52.888 36.2112 53.0193 35.9367C53.1506 35.6623 53.2692 35.4061 53.3752 35.163C53.4812 34.9225 53.5696 34.7186 53.6428 34.5566L54.082 34.533L54.0845 34.5409ZM53.3727 27.6949C52.7164 29.0699 51.048 30.3638 48.3623 31.5845C47.234 32.0994 46.0275 32.5569 44.7503 32.9594C43.4705 33.3594 42.11 33.7149 40.6637 34.0259C40.6864 33.9841 40.7066 33.9449 40.7243 33.9031C40.7394 33.8612 40.7546 33.822 40.7722 33.7802H40.7596C41.1938 32.7346 41.6632 31.7387 42.1681 30.7925C42.6729 29.8488 43.2257 28.947 43.8264 28.087C45.7927 25.2169 47.7313 23.7374 49.642 23.6459C50.7703 23.6041 51.7295 23.9282 52.5195 24.6157C53.3096 25.277 53.6604 26.0429 53.5746 26.9107C53.5595 27.0493 53.5342 27.1826 53.5039 27.3107C53.4736 27.4361 53.4282 27.5668 53.3727 27.6975V27.6949ZM39.6313 36.8203C39.6389 37.2045 39.7171 37.492 39.8686 37.6855C40.02 37.8763 40.2094 37.9913 40.4365 38.0227C40.6662 38.054 40.9212 38.0096 41.2064 37.8867C41.4916 37.7639 41.7718 37.5757 42.0469 37.3221C42.1327 37.2411 42.2261 37.147 42.3246 37.0398C42.423 36.9327 42.5038 36.8385 42.5669 36.7575C42.63 36.666 42.6477 36.6164 42.6199 36.6033C42.5921 36.5902 42.5467 36.6164 42.4836 36.6817C42.3978 36.781 42.312 36.8725 42.2287 36.9588C42.1454 37.0451 42.052 37.1287 41.951 37.2097C41.7617 37.3561 41.5572 37.4764 41.3402 37.5731C41.1231 37.6672 40.9212 37.7012 40.7369 37.6776C40.5501 37.6541 40.3961 37.5548 40.275 37.3823C40.1538 37.2097 40.0983 36.9327 40.116 36.5484C40.1235 36.2138 40.174 35.8348 40.2649 35.4139C40.3558 34.9931 40.4693 34.5905 40.6031 34.2063C41.8046 33.9684 42.9808 33.6835 44.1394 33.3489C45.2955 33.0143 46.4389 32.6196 47.5672 32.17C50.8536 30.8866 52.8704 29.5038 53.62 28.0243C53.7538 27.7367 53.8422 27.4361 53.88 27.1172C53.9583 26.137 53.5569 25.2613 52.671 24.4928C51.8027 23.7165 50.7905 23.361 49.6395 23.4263C46.29 23.6485 43.1575 27.1878 40.2346 34.0495V34.086C40.0377 34.5592 39.8837 35.0297 39.7727 35.4897C39.6616 35.9524 39.6137 36.3942 39.6313 36.8203ZM39.4294 32.834C39.4521 32.7608 39.4294 32.6876 39.3512 32.6196C39.2754 32.549 39.1947 32.5229 39.1088 32.5386C38.9978 32.5621 38.8514 32.6745 38.6696 32.8706C38.4879 33.0588 38.397 33.2104 38.397 33.3254C38.397 33.4326 38.4828 33.5005 38.657 33.5345C38.7756 33.558 38.922 33.4848 39.0962 33.3123C39.2931 33.132 39.4042 32.9725 39.4269 32.834H39.4294ZM40.1765 36.6242C40.2245 36.5824 40.2598 36.5379 40.2826 36.4883C40.3053 36.4386 40.3154 36.402 40.3128 36.3785C40.3078 36.355 40.2901 36.3471 40.2598 36.355C40.2295 36.3628 40.1765 36.4046 40.1059 36.4778C39.9948 36.585 39.8383 36.7157 39.6313 36.8699C39.4269 37.0241 39.2048 37.181 38.9675 37.3352C38.7302 37.492 38.5005 37.6306 38.2733 37.7534C38.0487 37.8763 37.8619 37.9547 37.7105 37.9861C37.6322 38.0018 37.5514 38.0122 37.4682 38.0174C37.3849 38.0227 37.3167 37.9991 37.2612 37.9495C37.2056 37.8998 37.1804 37.8214 37.1855 37.709C37.1905 37.5992 37.2385 37.4424 37.3344 37.2359C37.4303 37.032 37.4909 36.8961 37.5186 36.8307C37.5464 36.7654 37.5641 36.7209 37.5716 36.6948C37.5792 36.6713 37.5893 36.6451 37.6019 36.6164C37.6146 36.5876 37.6499 36.5066 37.713 36.3785C37.7761 36.2478 37.8821 36.0413 38.026 35.759C38.1724 35.4767 38.3794 35.0741 38.6469 34.5513C38.7176 34.4049 38.7378 34.2847 38.705 34.1958C38.6747 34.107 38.6217 34.0495 38.551 34.0233C38.4803 33.9998 38.4046 34.005 38.3264 34.0416C38.2481 34.0782 38.2001 34.1462 38.185 34.2429C38.1774 34.2769 38.1421 34.3631 38.079 34.5069C38.0159 34.6507 37.9376 34.8206 37.8417 35.0218C37.7458 35.2231 37.6448 35.4427 37.5338 35.6858C37.4227 35.9263 37.3218 36.1641 37.2258 36.3968C37.1299 36.6294 37.0517 36.8516 36.9886 37.0581C36.9255 37.2672 36.8927 37.4371 36.8927 37.5678C36.8927 37.7142 36.9305 37.8397 37.0062 37.9416C37.082 38.0436 37.1678 38.1246 37.2662 38.1874C37.3647 38.2475 37.4631 38.2867 37.5615 38.305C37.66 38.3207 37.7332 38.3207 37.7811 38.305C37.9553 38.2239 38.1598 38.1089 38.397 37.9599C38.6343 37.8136 38.869 37.6541 39.1013 37.4868C39.3335 37.3195 39.548 37.1575 39.7424 37.0032C39.9367 36.849 40.0806 36.7209 40.174 36.6242H40.1765ZM35.2974 29.4855C35.1863 29.4698 35.0753 29.4541 34.9667 29.441C34.8557 29.428 34.7421 29.4227 34.6235 29.4227C33.7299 29.4227 32.7632 29.6841 31.7207 30.2069C30.8045 30.6565 30.0674 31.1715 29.5045 31.7518C29.4894 31.6707 29.4818 31.5871 29.4818 31.5061C29.4818 31.0957 29.6711 30.6827 30.0497 30.267C30.4763 29.8018 31.0442 29.4201 31.7561 29.1274C32.4981 28.8085 33.2579 28.649 34.0303 28.649C34.1414 28.649 34.2549 28.6542 34.3736 28.6621C34.4922 28.6699 34.6058 28.683 34.7169 28.6987C35.1914 28.7797 35.6104 28.9182 35.9789 29.1091C36.3474 29.3025 36.6554 29.5639 36.9078 29.9011C37.3495 30.4971 37.5716 31.1845 37.5716 31.9609C37.5716 32.9411 37.193 33.9161 36.4333 34.8807C36.0849 35.3303 35.6937 35.7381 35.2545 36.1014C34.8153 36.4648 34.3281 36.7941 33.7905 37.0895C32.7329 37.6619 31.7384 37.9233 30.8045 37.8737C29.921 37.8319 29.2294 37.5888 28.7321 37.1444C28.2349 36.7 27.985 36.0962 27.985 35.3355C27.985 35.1708 27.9976 35.0062 28.0203 34.8389C28.0431 34.6716 28.0759 34.4964 28.1163 34.3187C28.2122 33.9919 28.3838 33.5999 28.6362 33.1398C28.77 32.9176 28.8987 32.732 29.0224 32.5752C29.1436 32.421 29.2622 32.2876 29.3708 32.1831C29.4566 32.4445 29.6383 32.6902 29.916 32.9202C30.0649 33.0352 30.2189 33.1215 30.3779 33.1842C30.5369 33.2444 30.701 33.2809 30.8751 33.2888C31.0013 33.3123 31.0644 33.2836 31.0644 33.2025C31.0644 33.145 31.0215 33.1163 30.9332 33.1163C30.6101 33.1163 30.3022 33.0013 30.0094 32.7738C29.8756 32.6588 29.7645 32.5386 29.6787 32.4131C29.5929 32.2876 29.5399 32.1543 29.5247 32.0158C29.8327 31.5583 30.4839 31.0643 31.4784 30.5311C32.6244 29.9011 33.6693 29.5874 34.6184 29.5874C34.8557 29.5874 35.0778 29.6109 35.2823 29.6606C35.3681 29.6868 35.4135 29.6554 35.4135 29.5743C35.4135 29.5247 35.3731 29.4959 35.2949 29.4881L35.2974 29.4855ZM27.9295 34.3056C27.8336 34.6742 27.7881 35.0297 27.7881 35.3721C27.7881 36.2478 28.1087 36.9536 28.7473 37.4947C29.3076 37.9599 29.9942 38.2135 30.8095 38.2553C31.6854 38.305 32.6092 38.0959 33.581 37.6306C34.6462 37.1235 35.5347 36.4517 36.2465 35.6178C36.6579 35.1186 36.986 34.5984 37.2359 34.0599C37.4858 33.5214 37.6524 32.949 37.7382 32.3425C37.7458 32.3007 37.7509 32.2537 37.7559 32.2014C37.761 32.1491 37.761 32.0942 37.761 32.0367C37.761 31.2996 37.5313 30.5964 37.0744 29.9272C36.5368 29.1012 35.8022 28.615 34.8708 28.4686C34.5856 28.419 34.2903 28.3955 33.9823 28.3955C33.2074 28.3955 32.4628 28.5418 31.7434 28.8372C30.9938 29.164 30.3804 29.6109 29.9084 30.1756C29.497 30.6905 29.2925 31.1767 29.2925 31.6342C29.2925 31.7648 29.3076 31.8825 29.3405 31.9896C28.5984 32.7425 28.1289 33.5136 27.932 34.3082L27.9295 34.3056ZM23.0024 33.8639C22.9065 34.0102 22.7803 34.1462 22.6187 34.269C22.4572 34.3919 22.278 34.4991 22.0785 34.5932C21.8817 34.6873 21.6722 34.7578 21.45 34.8075C21.2279 34.8572 21.0159 34.8807 20.8114 34.8807C21.079 34.5775 21.3642 34.2847 21.6646 34.0024C21.965 33.7201 22.2603 33.4927 22.5531 33.3228C22.6717 33.2574 22.7752 33.2234 22.8661 33.2182C22.9569 33.213 23.0251 33.2391 23.0731 33.2914C23.121 33.3437 23.1412 33.4195 23.1311 33.5188C23.1235 33.6181 23.0806 33.7305 22.9999 33.8612L23.0024 33.8639ZM24.9081 34.4415C24.9485 34.384 24.9535 34.3474 24.9258 34.3318C24.898 34.3161 24.8652 34.337 24.8248 34.3919C24.7289 34.4808 24.5976 34.5722 24.4285 34.6611C24.2594 34.75 24.0903 34.8049 23.9262 34.8206C23.8 34.8363 23.6486 34.8493 23.4693 34.8572C23.2927 34.865 23.1008 34.8702 22.8938 34.8755C22.6894 34.8807 22.4723 34.8807 22.2426 34.8807H21.5914C21.9852 34.8153 22.3385 34.7056 22.6465 34.5487C22.9544 34.3919 23.169 34.2011 23.2851 33.971C23.3558 33.8482 23.386 33.7149 23.3734 33.5659C23.3608 33.4195 23.3229 33.2862 23.2548 33.1685C23.1866 33.0509 23.0958 32.9594 22.9771 32.8993C22.8585 32.8392 22.7247 32.8313 22.5733 32.881C22.2956 32.996 21.9877 33.1947 21.6444 33.477C21.3011 33.7593 20.973 34.0939 20.66 34.4834C20.347 34.8728 20.0845 35.2911 19.8674 35.7407C19.6503 36.1903 19.5292 36.6399 19.5065 37.0895C19.4989 37.2542 19.5342 37.4058 19.6125 37.5495C19.6907 37.6933 19.7892 37.8162 19.9078 37.9233C20.0264 38.0305 20.1552 38.1089 20.299 38.1612C20.4404 38.2135 20.5716 38.2292 20.6903 38.203C20.8316 38.1795 20.9806 38.1351 21.1345 38.075C21.2885 38.0148 21.4374 37.9469 21.5788 37.8737C21.7201 37.8005 21.8514 37.7247 21.97 37.6463C22.0886 37.5678 22.1921 37.4973 22.278 37.4319C22.3411 37.3901 22.3562 37.3561 22.3259 37.3274C22.2956 37.2986 22.2477 37.3038 22.1846 37.3457C21.97 37.4685 21.7176 37.5861 21.4197 37.7012C21.1244 37.8162 20.8442 37.892 20.5843 37.9338C20.4808 37.9416 20.3798 37.9338 20.2814 37.9155C20.1829 37.8946 20.0946 37.8554 20.0214 37.7926C19.9457 37.7325 19.8876 37.6437 19.8447 37.5286C19.8018 37.4136 19.7841 37.2672 19.7917 37.0869C19.7993 36.8908 19.8346 36.7 19.8977 36.517C19.9608 36.3341 20.0365 36.1563 20.1223 35.9838C20.2082 35.8113 20.3016 35.6518 20.4 35.5002C20.4984 35.3486 20.5918 35.2127 20.6777 35.0898H21.5081C21.8236 35.0898 22.1391 35.0846 22.4546 35.0767C22.7702 35.0689 23.0604 35.0611 23.3255 35.0532C23.5905 35.0454 23.7899 35.0297 23.9237 35.0035C24.1458 34.9722 24.3452 34.8911 24.5219 34.7631C24.6986 34.6376 24.8273 34.5278 24.9056 34.4389L24.9081 34.4415ZM16.1544 38.0854C16.2503 38.0933 16.3235 38.0906 16.3791 38.0723C16.427 38.0567 16.4624 38.041 16.4851 38.0227C16.5078 38.007 16.5204 37.9991 16.5204 37.9991C16.6794 37.9991 16.8486 37.9103 17.0303 37.7299C17.4342 37.377 17.9238 36.8464 18.4993 36.1354C18.7517 35.8243 18.9739 35.5394 19.1632 35.2832C19.3525 35.0245 19.514 34.7944 19.6478 34.5905C19.7185 34.5017 19.7664 34.4677 19.7892 34.4912C19.8295 34.533 19.88 34.567 19.9431 34.5958C20.0062 34.6245 20.082 34.6507 20.1678 34.6742C20.2788 34.6977 20.3344 34.669 20.3344 34.5879C20.3344 34.5644 20.3218 34.5435 20.299 34.5278C20.2031 34.4546 20.1526 34.3684 20.1451 34.269C20.1299 34.1148 20.2359 33.8691 20.4656 33.5319C20.4732 33.524 20.4656 33.5031 20.448 33.4718C20.4303 33.4404 20.4 33.409 20.3647 33.3803C20.3293 33.3515 20.294 33.328 20.2586 33.3071C20.2233 33.2862 20.1981 33.2809 20.1804 33.2888C20.1249 33.3202 20.0592 33.3672 19.9785 33.4247C19.9002 33.4822 19.8043 33.5554 19.6932 33.6469C19.6377 33.8011 19.5999 33.9344 19.5797 34.039C19.5595 34.1462 19.5393 34.2194 19.514 34.2586C19.3171 34.5461 19.1203 34.8284 18.9284 35.1055C18.7341 35.3826 18.5347 35.6649 18.3302 35.9524C18.0298 36.3706 17.7648 36.7209 17.5376 37.0085C17.3079 37.296 17.1111 37.5077 16.9445 37.6463C16.8258 37.7456 16.7274 37.7926 16.6491 37.7926C16.5305 37.7926 16.4725 37.7038 16.4725 37.5234C16.4725 37.4502 16.4851 37.364 16.5078 37.2672C16.682 36.6138 17.1287 35.6962 17.8456 34.52C17.8532 34.5043 17.8607 34.4886 17.8683 34.4781C17.8759 34.4651 17.8809 34.452 17.8809 34.4363C17.8809 34.3291 17.8178 34.2769 17.6916 34.2769C17.6361 34.2769 17.5957 34.2926 17.573 34.3265C16.5936 35.725 16.0055 36.8778 15.8086 37.7848C15.7859 37.8502 15.8111 37.9155 15.8919 37.9809C15.9702 38.0462 16.0585 38.0828 16.1519 38.0906L16.1544 38.0854ZM15.7051 32.8366C15.7278 32.7634 15.7051 32.6902 15.6294 32.6222C15.5537 32.5517 15.4729 32.5255 15.3871 32.5412C15.276 32.5647 15.1296 32.6771 14.9479 32.8732C14.7661 33.0614 14.6753 33.213 14.6753 33.328C14.6753 33.4352 14.7611 33.5031 14.9353 33.5371C15.0539 33.5606 15.2003 33.4874 15.3745 33.3149C15.5713 33.1346 15.6824 32.9751 15.7051 32.8366ZM16.4523 36.6268C16.5002 36.585 16.5356 36.5406 16.5583 36.4909C16.581 36.4412 16.5911 36.4046 16.5886 36.3811C16.5835 36.3576 16.5659 36.3497 16.5356 36.3576C16.5053 36.3654 16.4523 36.4072 16.3816 36.4804C16.2705 36.5876 16.114 36.7183 15.9071 36.8725C15.7026 37.0268 15.4805 37.1836 15.2432 37.3378C15.0059 37.4947 14.7762 37.6332 14.5516 37.7561C14.3269 37.8789 14.1376 37.9573 13.9887 37.9887C13.9105 38.0044 13.8297 38.0148 13.7464 38.0201C13.6631 38.0253 13.595 38.0018 13.5394 37.9521C13.4839 37.9024 13.4586 37.824 13.4637 37.7116C13.4662 37.6018 13.5167 37.445 13.6126 37.2385C13.7085 37.0346 13.7691 36.8987 13.7969 36.8333C13.8246 36.768 13.8423 36.7235 13.8499 36.6974C13.8575 36.6739 13.8676 36.6477 13.8802 36.619C13.8928 36.5902 13.9307 36.5092 13.9938 36.3811C14.0569 36.2504 14.1629 36.0439 14.3068 35.7616C14.4532 35.4793 14.6601 35.0767 14.9277 34.5539C14.9984 34.4076 15.0186 34.2873 14.9883 34.1984C14.958 34.1096 14.905 34.0521 14.8343 34.0259C14.7636 34.0024 14.6879 34.0076 14.6097 34.0442C14.5314 34.0808 14.4834 34.1488 14.4683 34.2455C14.4607 34.2795 14.4254 34.3657 14.3623 34.5095C14.2992 34.6533 14.2209 34.8232 14.125 35.0245C14.0291 35.2257 13.9281 35.4453 13.8171 35.6884C13.706 35.9289 13.6025 36.1668 13.5091 36.3994C13.4132 36.632 13.335 36.8542 13.2719 37.0607C13.2088 37.2699 13.1759 37.4398 13.1759 37.5705C13.1759 37.7168 13.2138 37.8423 13.2895 37.9443C13.3653 38.0462 13.4511 38.1272 13.5495 38.19C13.648 38.2501 13.7464 38.2893 13.8448 38.3076C13.9433 38.3233 14.0165 38.3233 14.0644 38.3076C14.2386 38.2266 14.4431 38.1115 14.6803 37.9626C14.9176 37.8162 15.1523 37.6567 15.3846 37.4894C15.6168 37.3221 15.8313 37.1601 16.0232 37.0058C16.2175 36.8516 16.3614 36.7235 16.4548 36.6268H16.4523ZM22.861 27.6975C22.2048 29.0725 20.5363 30.3664 17.8506 31.5871C16.7223 32.102 15.5183 32.5595 14.2386 32.962C12.9589 33.362 11.5984 33.7175 10.152 34.0285C10.1748 33.9867 10.195 33.9475 10.2101 33.9057C10.2252 33.8639 10.2404 33.8247 10.2581 33.7828H10.2454C10.6796 32.7372 11.1491 31.7413 11.6539 30.7951C12.1587 29.8514 12.7115 28.9496 13.3123 28.0896C15.2785 25.2195 17.2171 23.74 19.1278 23.6485C20.2561 23.6067 21.2153 23.9308 22.0053 24.6183C22.7954 25.2796 23.1463 26.0455 23.0604 26.9133C23.0453 27.0519 23.02 27.1852 22.9898 27.3133C22.9595 27.4387 22.914 27.5694 22.8585 27.7001L22.861 27.6975ZM9.11967 36.8229C9.12725 37.2071 9.20549 37.4947 9.35694 37.6881C9.50587 37.8789 9.6977 37.9939 9.92487 38.0253C10.1546 38.0567 10.4095 38.0122 10.6947 37.8894C10.98 37.7665 11.2601 37.5783 11.5353 37.3247C11.6211 37.2437 11.7145 37.1496 11.8129 37.0424C11.9114 36.9353 11.9921 36.8412 12.0552 36.7601C12.1183 36.6686 12.136 36.619 12.1082 36.6059C12.0805 36.5928 12.035 36.619 11.9719 36.6843C11.8861 36.7837 11.8003 36.8751 11.717 36.9614C11.6337 37.0477 11.5403 37.1313 11.4393 37.2123C11.25 37.3587 11.0456 37.479 10.8285 37.5757C10.6114 37.6698 10.4095 37.7038 10.2252 37.6802C10.041 37.6567 9.88448 37.5574 9.76333 37.3849C9.63964 37.2123 9.58664 36.9353 9.60431 36.551C9.61188 36.2164 9.66236 35.8374 9.75323 35.4166C9.8441 34.9957 9.95768 34.5932 10.0915 34.2089C11.2929 33.971 12.4692 33.6861 13.6278 33.3515C14.7838 33.0169 15.9272 32.6222 17.0581 32.1726C20.3419 30.8892 22.3612 29.5064 23.1109 28.0269C23.2447 27.7393 23.333 27.4387 23.3709 27.1198C23.4491 26.1396 23.0478 25.2639 22.1618 24.4954C21.2935 23.7191 20.2814 23.3636 19.1304 23.4289C15.7834 23.6511 12.6459 27.1904 9.72546 34.0521V34.0887C9.52858 34.5618 9.37461 35.0323 9.26355 35.4924C9.15249 35.955 9.10453 36.3968 9.1222 36.8229H9.11967ZM7.50928 29.4881C7.39822 29.4724 7.28716 29.4567 7.17862 29.4437C7.06756 29.4306 6.95397 29.4254 6.83534 29.4254C5.9418 29.4254 4.97506 29.6867 3.93259 30.2095C3.01633 30.6591 2.27929 31.1741 1.71641 31.7544C1.70126 31.6734 1.69369 31.5897 1.69369 31.5087C1.69369 31.0983 1.883 30.6853 2.26162 30.2697C2.6882 29.8044 3.25612 29.4227 3.96793 29.13C4.71002 28.8111 5.46726 28.6516 6.24217 28.6516C6.35323 28.6516 6.46681 28.6568 6.58545 28.6647C6.70408 28.6725 6.81767 28.6856 6.92873 28.7013C7.40327 28.7823 7.82227 28.9209 8.19079 29.1117C8.55679 29.3051 8.86726 29.5665 9.11967 29.9037C9.5614 30.4997 9.78352 31.1872 9.78352 31.9635C9.78352 32.9437 9.4049 33.9188 8.64766 34.8833C8.29933 35.3329 7.90809 35.7407 7.46889 36.104C7.0297 36.4674 6.54254 36.7967 6.0049 37.0921C4.94729 37.6646 3.95278 37.926 3.01886 37.8763C2.13541 37.8345 1.4438 37.5914 0.946548 37.147C0.449295 36.7026 0.199406 36.0988 0.199406 35.3381C0.199406 35.1735 0.212027 35.0088 0.234744 34.8415C0.257461 34.6742 0.290275 34.4991 0.330661 34.3213C0.426578 33.9946 0.598218 33.6025 0.853155 33.1424C0.986934 32.9202 1.11566 32.7346 1.23682 32.5778C1.3605 32.4236 1.47661 32.2903 1.58515 32.1857C1.67097 32.4471 1.85271 32.6928 2.13036 32.9228C2.27929 33.0378 2.43578 33.1241 2.59228 33.1868C2.7513 33.247 2.91537 33.2836 3.08953 33.2914C3.21574 33.3149 3.27884 33.2862 3.27884 33.2051C3.27884 33.1476 3.23593 33.1189 3.14759 33.1189C2.8245 33.1189 2.51656 33.0039 2.22376 32.7765C2.08998 32.6614 1.97892 32.5412 1.8931 32.4157C1.80728 32.2903 1.75427 32.1569 1.73912 32.0184C2.04707 31.561 2.69829 31.0669 3.6928 30.5337C4.83875 29.9037 5.88374 29.59 6.83029 29.59C7.06756 29.59 7.28968 29.6136 7.49414 29.6632C7.57996 29.6894 7.62539 29.658 7.62539 29.577C7.62539 29.5273 7.585 29.4985 7.50676 29.4907L7.50928 29.4881ZM0.141351 34.3056C0.0454343 34.6742 0 35.0297 0 35.3721C0 36.2478 0.320564 36.9536 0.959168 37.4947C1.51952 37.9599 2.20609 38.2135 3.02138 38.2553C3.89725 38.305 4.82108 38.0959 5.79287 37.6306C6.85806 37.1235 7.74655 36.4517 8.45835 35.6178C8.86978 35.1186 9.19792 34.5984 9.44781 34.0599C9.69517 33.5214 9.86429 32.949 9.95011 32.3425C9.95768 32.3007 9.96273 32.2537 9.96778 32.2014C9.97283 32.1491 9.97283 32.0942 9.97283 32.0367C9.97283 31.2996 9.74313 30.5964 9.28627 29.9272C8.74863 29.1012 8.0141 28.615 7.0827 28.4686C6.79748 28.419 6.50215 28.3955 6.19421 28.3955C5.4193 28.3955 4.67468 28.5418 3.95531 28.8372C3.20564 29.164 2.59228 29.6109 2.12027 30.1756C1.70883 30.6905 1.50438 31.1767 1.50438 31.6342C1.50438 31.7648 1.51952 31.8825 1.55234 31.9896C0.810245 32.7425 0.340757 33.5136 0.143875 34.3082L0.141351 34.3056Z" fill="#231F20"/>
<path d="M83.059 33.8665C82.963 34.0128 82.8368 34.1488 82.6728 34.2716C82.5112 34.3945 82.332 34.5017 82.1326 34.5958C81.9357 34.6899 81.7262 34.7604 81.5041 34.8101C81.282 34.8598 81.0699 34.8833 80.8655 34.8833C81.133 34.5801 81.4183 34.2873 81.7186 34.005C82.019 33.7227 82.3143 33.4953 82.6071 33.3254C82.7258 33.26 82.8293 33.226 82.9201 33.2208C83.011 33.2156 83.0791 33.2417 83.1271 33.294C83.1751 33.3463 83.1953 33.4221 83.1852 33.5214C83.1776 33.6208 83.1347 33.7332 83.0539 33.8639L83.059 33.8665ZM84.9596 34.4415C85 34.384 85.0051 34.3474 84.9773 34.3318C84.9495 34.3161 84.9167 34.337 84.8763 34.3919C84.7804 34.4808 84.6492 34.5722 84.48 34.6611C84.3109 34.75 84.1418 34.8049 83.9777 34.8206C83.8515 34.8362 83.7001 34.8493 83.5209 34.8572C83.3442 34.865 83.1523 34.8702 82.9454 34.8755C82.7409 34.8807 82.5238 34.8807 82.2941 34.8807H81.6429C82.0367 34.8153 82.3901 34.7055 82.698 34.5487C83.0059 34.3919 83.218 34.2011 83.3366 33.971C83.4073 33.8482 83.4376 33.7122 83.425 33.5659C83.4123 33.4195 83.3745 33.2862 83.3063 33.1685C83.2382 33.0509 83.1473 32.9594 83.0287 32.8993C82.91 32.8392 82.7763 32.8313 82.6248 32.881C82.3497 32.996 82.0392 33.1947 81.6959 33.477C81.3526 33.7593 81.0245 34.0939 80.714 34.4834C80.401 34.8728 80.1385 35.2911 79.9215 35.7407C79.7044 36.1903 79.5832 36.6399 79.5605 37.0895C79.5529 37.2515 79.5883 37.4058 79.6665 37.5495C79.7448 37.6933 79.8432 37.8162 79.9619 37.9233C80.0805 38.0305 80.2117 38.1089 80.3531 38.1638C80.4944 38.2161 80.6257 38.2318 80.7443 38.2056C80.8857 38.1821 81.0346 38.1377 81.1886 38.0776C81.3425 38.0174 81.4915 37.9495 81.6328 37.8763C81.7742 37.8031 81.9054 37.7273 82.0241 37.6489C82.1427 37.5705 82.2462 37.4999 82.332 37.4345C82.3951 37.3927 82.4103 37.3587 82.38 37.33C82.3497 37.3012 82.3017 37.3064 82.2386 37.3483C82.0266 37.4711 81.7717 37.5888 81.4738 37.7038C81.1785 37.8188 80.8983 37.8946 80.6383 37.9364C80.5348 37.9443 80.4339 37.9364 80.3354 37.9181C80.237 37.8972 80.1486 37.858 80.0754 37.7953C79.9997 37.7351 79.9417 37.6463 79.8988 37.5312C79.8558 37.4162 79.8382 37.2698 79.8457 37.0895C79.8533 36.8934 79.8887 36.7026 79.9518 36.5196C80.0149 36.3367 80.0906 36.1589 80.1764 35.9864C80.2622 35.8139 80.3556 35.6544 80.4541 35.5028C80.5525 35.3512 80.6459 35.2153 80.7317 35.0924H81.5596C81.8751 35.0924 82.1907 35.0872 82.5062 35.0793C82.8217 35.0715 83.112 35.0637 83.377 35.0558C83.642 35.048 83.8414 35.0323 83.9752 35.0062C84.1973 34.9748 84.3967 34.8938 84.5734 34.7657C84.7501 34.6402 84.8788 34.5304 84.9571 34.4415H84.9596ZM74.7369 37.926C75.06 37.8528 75.2619 37.7613 75.3402 37.6567C75.8071 37.0921 76.2615 36.5902 76.7082 36.1485C77.155 35.7067 77.6018 35.3224 78.0536 34.9957C78.1167 34.9539 78.1798 34.933 78.2429 34.933C78.3843 34.933 78.4549 34.9983 78.4549 35.129C78.4549 35.1787 78.4423 35.2179 78.4196 35.2519C78.1899 35.5786 77.9754 35.9158 77.7734 36.2635C77.5715 36.6111 77.3797 36.9719 77.1979 37.3483C76.7486 38.2396 76.4987 38.9794 76.4508 39.5675C76.4104 40.0903 76.5013 40.4746 76.7234 40.7203C76.9278 40.932 77.1904 41.0235 77.5059 40.9895C78.3893 40.8902 79.2122 40.4537 79.9694 39.6773C80.2471 39.3898 80.4743 39.1179 80.656 38.8565C80.8377 38.5951 80.9639 38.3442 81.0346 38.1089C81.0826 37.9625 81.1053 37.8423 81.1053 37.7534C81.1053 37.5652 81.0371 37.4711 80.9033 37.4711C80.8478 37.4711 80.7872 37.4868 80.7191 37.5208C80.6509 37.5548 80.6181 37.594 80.6181 37.6436C80.6181 37.6672 80.6333 37.6802 80.6661 37.6802C80.7065 37.6802 80.7494 37.6855 80.7973 37.6985C80.8453 37.7116 80.8857 37.7351 80.921 37.7717C80.9564 37.8083 80.974 37.8684 80.974 37.9495C80.974 38.3494 80.5979 38.8827 79.8483 39.544C79.1693 40.14 78.6039 40.5059 78.1546 40.6366C78.0511 40.668 77.9375 40.6863 77.8113 40.6863C77.5437 40.6863 77.3267 40.5948 77.1601 40.4171C76.9783 40.2132 76.9026 39.923 76.9354 39.5466C76.9657 38.9741 77.2005 38.2056 77.6346 37.2411C78.0839 36.2687 78.5912 35.4087 79.1516 34.6637C79.2702 34.5173 79.2728 34.4232 79.1642 34.3814C79.0607 34.3318 78.9244 34.3474 78.7503 34.4311C78.6644 34.4625 78.566 34.5304 78.4549 34.6271C78.2505 34.7082 77.8517 34.9957 77.2585 35.4845C77.0061 35.6962 76.7587 35.9132 76.5189 36.1275C76.2791 36.3445 76.0469 36.5641 75.8248 36.7836C75.7768 36.8412 75.7289 36.8699 75.6835 36.8699C75.6203 36.8699 75.5875 36.8255 75.5875 36.734C75.5875 36.6686 75.6027 36.6164 75.6355 36.5745C75.7945 36.206 75.9813 35.8452 76.1984 35.4897C76.4155 35.1342 76.6754 34.7761 76.9733 34.4154C76.996 34.3919 77.0086 34.3631 77.0086 34.3291C77.001 34.3213 76.9733 34.3213 76.9253 34.3291C76.8395 34.3448 76.7739 34.3657 76.731 34.3893C76.6881 34.4128 76.6552 34.4468 76.63 34.4886C76.471 34.6846 76.3019 34.9121 76.1201 35.1708C75.9384 35.427 75.744 35.7198 75.5396 36.0491C75.1054 36.7366 74.7975 37.2803 74.6157 37.6802C74.5678 37.7796 74.5602 37.8449 74.593 37.8763C74.6006 37.9259 74.6486 37.9416 74.7344 37.926H74.7369ZM74.6183 32.834C74.641 32.7608 74.6183 32.6876 74.5426 32.6196C74.4668 32.549 74.386 32.5229 74.3002 32.5386C74.1892 32.5621 74.0428 32.6745 73.861 32.8705C73.6793 33.0588 73.5884 33.2104 73.5884 33.3254C73.5884 33.4325 73.6743 33.5005 73.8484 33.5345C73.967 33.558 74.1134 33.4848 74.2876 33.3123C74.4845 33.1319 74.5956 32.9725 74.6183 32.834ZM75.3654 36.6242C75.4134 36.5824 75.4487 36.5379 75.4714 36.4883C75.4941 36.4386 75.5042 36.402 75.5017 36.3785C75.4967 36.355 75.479 36.3471 75.4487 36.355C75.4184 36.3628 75.3654 36.4046 75.2947 36.4778C75.1837 36.585 75.0272 36.7157 74.8202 36.8699C74.6158 37.0241 74.3936 37.181 74.1564 37.3352C73.9191 37.4894 73.6894 37.6306 73.4647 37.7534C73.2401 37.8763 73.0533 37.9547 72.9019 37.9861C72.8236 38.0018 72.7428 38.0122 72.6595 38.0174C72.5762 38.0227 72.5081 37.9991 72.4526 37.9495C72.397 37.8998 72.3718 37.8214 72.3768 37.709C72.3819 37.5992 72.4298 37.4424 72.5258 37.2359C72.6217 37.032 72.6823 36.896 72.71 36.8307C72.7378 36.7653 72.7555 36.7209 72.763 36.6948C72.7706 36.6713 72.7807 36.6425 72.7933 36.6137C72.806 36.585 72.8438 36.5066 72.9069 36.3759C72.97 36.2452 73.076 36.0387 73.2199 35.7564C73.3663 35.4741 73.5733 35.0715 73.8408 34.5487C73.9115 34.4023 73.9317 34.2821 73.8989 34.1932C73.8686 34.1043 73.8156 34.0468 73.7449 34.0207C73.6742 33.9945 73.5985 34.0024 73.5203 34.039C73.442 34.0756 73.3941 34.1435 73.3789 34.2403C73.3714 34.2742 73.336 34.3605 73.2729 34.5043C73.2098 34.648 73.1316 34.8179 73.0356 35.0192C72.9397 35.2205 72.8388 35.4401 72.7277 35.6832C72.6166 35.9237 72.5157 36.1615 72.4198 36.3942C72.3238 36.6268 72.2456 36.849 72.1825 37.0555C72.1194 37.2646 72.0866 37.4345 72.0866 37.5652C72.0866 37.7116 72.1244 37.8371 72.2002 37.939C72.2759 38.041 72.3617 38.122 72.4601 38.1847C72.5586 38.2449 72.657 38.2841 72.7555 38.3024C72.8539 38.318 72.9271 38.318 72.9751 38.3024C73.1492 38.2213 73.3537 38.1063 73.5909 37.9573C73.8282 37.8109 74.063 37.6541 74.2952 37.4842C74.5274 37.3169 74.742 37.1548 74.9338 37.0006C75.1281 36.8464 75.272 36.7183 75.3654 36.6216V36.6242ZM63.391 38.2056C63.5323 38.0174 63.661 37.8371 63.7746 37.6672C63.8882 37.4946 63.9942 37.3535 64.0876 37.2385C64.9711 36.1589 65.7485 35.2179 66.4199 34.418C67.0913 33.6155 67.6593 32.9385 68.1262 32.3817C68.1817 32.3242 68.2322 32.2955 68.2802 32.2955C68.3281 32.2955 68.3509 32.3321 68.3509 32.4053C68.3509 32.4785 68.3357 32.5438 68.3029 32.6013C67.5381 34.1148 67.1544 35.5133 67.1544 36.7967V37.0424C67.1544 37.1078 67.1595 37.1784 67.167 37.2515C67.1898 37.5783 67.3084 37.8449 67.523 38.0488C67.735 38.2527 67.9924 38.3546 68.2928 38.3546C68.3332 38.3546 68.3736 38.3546 68.4165 38.3494C68.4594 38.3442 68.5048 38.339 68.5528 38.3311C69.0904 38.2083 69.8048 37.7168 70.6958 36.8595C71.1451 36.4177 71.559 35.9629 71.9326 35.4976C72.3087 35.0323 72.6495 34.5356 72.9574 34.0128C73.6692 32.834 74.0226 31.8406 74.0226 31.0329C74.0226 30.4108 73.9014 29.9586 73.6566 29.6711C73.5859 29.5822 73.5253 29.5351 73.4799 29.5351C73.4572 29.5351 73.4446 29.5508 73.4446 29.5848C73.4446 29.6345 73.4723 29.6867 73.5278 29.7442C73.6944 30.0213 73.7727 30.4526 73.7651 31.0329C73.75 31.459 73.6515 31.9191 73.4698 32.4183C73.2881 32.9176 73.0154 33.4613 72.652 34.0494C72.0437 35.048 71.3091 35.9576 70.4484 36.7836C69.5877 37.6175 68.939 38.0645 68.5048 38.122C68.4745 38.1298 68.4417 38.1351 68.4089 38.1351H68.313C68.053 38.1351 67.8385 38.0514 67.6744 37.8841C67.5078 37.7168 67.4296 37.5025 67.4371 37.2411C67.4447 36.4308 67.576 35.6257 67.8284 34.8232C67.9394 34.4703 68.0858 34.0808 68.2726 33.6521C68.4594 33.2234 68.6765 32.7581 68.9289 32.2589C68.944 32.2275 68.9516 32.1857 68.9516 32.136C68.9516 32.021 68.9163 31.8982 68.8456 31.7675C68.7749 31.6368 68.6967 31.5557 68.6083 31.5217C68.5452 31.5061 68.4821 31.5662 68.419 31.7047C68.3004 31.8929 68.2423 31.9949 68.2423 32.0106C67.422 32.9829 66.6774 33.8639 66.011 34.648C65.3446 35.4322 64.754 36.1328 64.2391 36.7444C64.1684 36.8176 64.1078 36.8595 64.0624 36.8673C64.0144 36.883 63.9917 36.8595 63.9917 36.7941C63.9917 36.7706 64.0119 36.7078 64.0523 36.6111C64.4006 36.023 64.7212 35.4322 65.0165 34.8441C65.3118 34.2559 65.5869 33.6547 65.8394 33.0405C66.478 31.5113 66.7859 30.3821 66.7632 29.6554C66.748 29.279 66.5739 28.9679 66.2432 28.7222C65.8949 28.453 65.5213 28.3432 65.1175 28.3902C64.0119 28.5549 62.7675 29.1378 61.3868 30.1442C59.996 31.1662 59.216 32.0707 59.0419 32.8549C59.0267 32.8967 59.0192 32.9568 59.0192 33.0378C59.0192 33.2104 59.0545 33.3829 59.1252 33.558C59.1959 33.7332 59.2791 33.8456 59.3725 33.8952C59.5694 34.0024 59.8067 34.0024 60.0843 33.8952C60.1803 33.8795 60.2257 33.8534 60.2257 33.822C60.2257 33.8063 60.1828 33.7985 60.0944 33.7985C59.7537 33.7985 59.5215 33.7462 59.3953 33.6391C59.2287 33.4848 59.2059 33.2208 59.3246 32.8549C59.6174 31.987 60.5084 31.0669 62.0027 30.0945C62.7372 29.6292 63.3935 29.2737 63.974 29.0333C64.5546 28.7928 65.0695 28.6699 65.5188 28.6699C66.1347 28.6699 66.4754 28.9967 66.5385 29.6501C66.6496 30.6644 65.4456 33.4273 62.9265 37.9416C62.9114 37.9913 62.9038 38.0305 62.9038 38.0645C62.9038 38.2109 63.0073 38.2867 63.2117 38.2867C63.29 38.2867 63.3506 38.2579 63.3884 38.2004L63.391 38.2056Z" fill="#231F20"/>
</g>
<defs>
<clipPath id="clip0_16_13329">
<rect width="85" height="41" fill="white"/>
</clipPath>
</defs>
</svg>
