<svg width="72" height="43" viewBox="0 0 72 43" fill="none" xmlns="http://www.w3.org/2000/svg">
<g clip-path="url(#clip0_16_13326)">
<path d="M65.4061 9.31763C65.3722 9.36698 65.3184 9.41634 65.3184 9.4657C65.3184 9.49797 65.3702 9.53214 65.5276 9.63086C65.7527 9.79602 67.141 10.7889 67.2805 10.8876C67.4199 11.0034 67.4896 11.0527 67.5414 11.0527C67.6111 11.0527 67.6968 11.0034 67.8362 10.8876C68.0275 10.7224 69.6051 9.33281 69.7784 9.16765C69.8301 9.10121 69.8819 9.05185 69.8819 8.98541C69.8819 8.91897 69.8301 8.85253 69.7604 8.85253C69.7086 8.85253 69.5871 8.90188 69.4477 9.01768C69.0314 9.348 68.3721 9.86056 67.9737 10.0599C67.8342 10.1263 67.7645 10.1434 67.6968 10.1434C67.645 10.1434 67.5932 10.1111 67.5235 10.077C67.2984 9.97826 66.414 9.30054 66.0674 8.93605C66.0156 8.86961 65.9798 8.85442 65.928 8.85442C65.8762 8.85442 65.8423 8.8867 65.7726 8.95314L65.4081 9.31763H65.4061ZM64.9559 22.0139C67.2626 18.8228 69.4836 15.6829 71.7045 12.4423C71.7743 12.3607 71.7902 12.2601 71.7902 12.1937C71.7902 12.1101 71.7045 12.0779 71.4775 12.0779H67.2108C66.7247 12.0779 65.9957 12.0949 64.5396 12.0456C64.1412 12.0285 64.0356 11.9469 63.8982 11.9469C63.8125 11.9469 63.7767 12.0133 63.7588 12.2107C63.6711 12.6398 63.446 13.9136 63.446 14.0787C63.446 14.1945 63.464 14.261 63.5337 14.261C63.6193 14.261 63.707 14.2287 63.7408 14.0123C63.7926 13.682 64.0715 13.1694 64.6073 12.9036C65.0934 12.655 65.9957 12.672 66.7765 12.672H70.0034C67.904 15.7968 65.6491 18.9215 63.3604 22.0785C63.1692 22.3424 63.1512 22.443 63.1512 22.5075C63.1512 22.6062 63.2548 22.6233 63.4281 22.6233C66.0993 22.6233 68.6848 22.6916 71.2344 22.6916C71.581 22.6916 71.599 22.6746 71.6846 22.3253C71.7882 21.9779 71.9974 21.1521 71.9974 20.706C71.9974 20.4421 71.9635 20.3908 71.8758 20.3908C71.7882 20.3908 71.7364 20.4744 71.7025 20.6053C71.6508 20.8028 71.5472 21.1843 71.3898 21.3666C71.0432 21.7633 70.6269 22.012 69.0135 22.012H64.9539L64.9559 22.0139ZM53.4107 18.5912C53.4107 19.9466 53.4107 21.0553 53.3231 21.6324C53.2534 22.0462 53.2195 22.3272 52.9247 22.3765C52.7853 22.3936 52.594 22.443 52.4566 22.443C52.369 22.443 52.3351 22.5094 52.3351 22.5588C52.3351 22.6442 52.4207 22.6765 52.5781 22.6765C52.8211 22.6765 53.1677 22.6594 53.4625 22.6442C53.7912 22.6252 54.086 22.6252 54.1218 22.6252C54.3469 22.6252 54.7453 22.6252 55.3887 22.6613C56.0142 22.6784 56.8986 22.7106 58.042 22.7106C58.6316 22.7106 58.7889 22.7106 58.8925 22.3442C58.9801 22.0462 59.0997 21.0875 59.0997 20.9888C59.0997 20.8901 59.0817 20.7743 58.9961 20.7743C58.9104 20.7743 58.8746 20.8237 58.8407 20.9888C58.7531 21.5507 58.5459 21.7994 58.1475 21.9646C57.7491 22.1126 57.0201 22.1126 56.6217 22.1126C55.1118 22.1126 54.835 21.9304 54.8011 20.9888C54.7832 20.7079 54.8011 19.0715 54.8011 18.5912V17.418C54.8011 17.3686 54.819 17.3193 54.9047 17.3193C55.1656 17.3193 56.795 17.3363 57.2113 17.3857C57.8009 17.4521 57.9404 17.6173 57.9922 17.8147C58.0619 17.997 58.0619 18.1451 58.0619 18.2779C58.0619 18.3596 58.0957 18.4108 58.1655 18.4108C58.269 18.4108 58.3049 18.2627 58.3049 18.1469C58.3049 18.0482 58.3387 17.5186 58.3746 17.2376C58.4085 16.7744 58.4961 16.5428 58.4961 16.4612C58.4961 16.3796 58.4603 16.3454 58.4085 16.3454C58.3567 16.3454 58.287 16.4289 58.1834 16.5276C58.028 16.6757 57.8009 16.6928 57.4384 16.7251C57.0918 16.7573 55.078 16.7573 54.8887 16.7573C54.8011 16.7573 54.8011 16.708 54.8011 16.6093V12.7897C54.8011 12.691 54.819 12.6417 54.8887 12.6417C55.062 12.6417 56.8309 12.6588 57.0918 12.691C57.9244 12.7897 58.0798 12.8885 58.1854 13.1201C58.2551 13.2852 58.273 13.5168 58.273 13.6155C58.273 13.7313 58.3069 13.7978 58.3945 13.7978C58.4642 13.7978 58.516 13.7143 58.534 13.6497C58.5698 13.4845 58.6037 12.8562 58.6216 12.7233C58.6555 12.3265 58.7431 12.1614 58.7431 12.0627C58.7431 11.9962 58.7252 11.9298 58.6734 11.9298C58.6037 11.9298 58.534 11.9791 58.4642 11.9962C58.3427 12.0133 58.0658 12.0627 57.771 12.0798C57.4245 12.0968 54.2314 12.0798 54.1278 12.0798C54.0402 12.0798 53.0522 12.0475 52.359 12.0475C52.1857 12.0475 52.116 12.0798 52.116 12.1633C52.116 12.2126 52.1857 12.2791 52.2375 12.2791C52.3769 12.2791 52.6359 12.2962 52.7574 12.3114C53.2593 12.3778 53.347 12.6094 53.3808 13.0878C53.4147 13.5339 53.4147 13.9307 53.4147 16.1138V18.5931L53.4107 18.5912ZM41.7978 18.5912C41.7978 19.9466 41.7978 21.0553 41.7102 21.6324C41.6405 22.0462 41.6066 22.3101 41.3118 22.3765C41.1724 22.4088 40.9811 22.443 40.8437 22.443C40.7561 22.443 40.7222 22.5094 40.7222 22.5588C40.7222 22.6442 40.8078 22.6765 40.9652 22.6765C41.4333 22.6765 42.4213 22.6271 42.4751 22.6271C42.5448 22.6271 43.5507 22.6765 44.3833 22.6765C44.5566 22.6765 44.6264 22.6233 44.6264 22.5588C44.6264 22.5094 44.5925 22.443 44.5048 22.443C44.3654 22.443 44.0368 22.4107 43.8276 22.3765C43.3595 22.3101 43.2719 22.0462 43.2201 21.6324C43.1503 21.0534 43.1503 19.9466 43.1503 18.5912V12.8714C43.1503 12.7233 43.1842 12.6227 43.2719 12.6075C43.4272 12.5752 43.8615 12.5088 44.1224 12.5088C44.469 12.5088 45.3893 12.4272 46.186 13.1865C47.0007 13.9478 47.0545 14.8571 47.0545 15.3184C47.0545 16.5922 45.8753 17.5831 44.226 17.5831C43.9132 17.5831 43.8276 17.6173 43.8276 17.7331C43.8276 17.7995 43.9152 17.866 43.983 17.866C44.0686 17.8831 44.3296 17.8831 44.4172 17.8831C46.7597 17.8831 48.3552 16.5447 48.3552 14.5268C48.3552 13.7655 47.9389 13.139 47.5923 12.841C47.3314 12.6265 46.6382 12.0475 44.6782 12.0475C43.985 12.0475 42.8396 12.0798 42.5089 12.0798C42.3874 12.0798 41.4333 12.0475 40.7401 12.0475C40.5668 12.0475 40.4971 12.0798 40.4971 12.1633C40.4971 12.2126 40.5668 12.2791 40.6186 12.2791C40.758 12.2791 41.017 12.2962 41.1385 12.3114C41.6405 12.3778 41.7281 12.6094 41.762 13.0878C41.7958 13.5339 41.7958 13.9307 41.7958 16.1138V18.5931L41.7978 18.5912ZM30.2188 18.1773C30.167 18.1773 30.1491 18.1451 30.167 18.0786L31.5892 14.2268C31.6749 14.0123 31.7625 14.0123 31.8502 14.2268L33.3601 18.0786C33.378 18.1451 33.378 18.1773 33.3083 18.1773H30.2208H30.2188ZM28.0157 21.1198C27.7209 21.8298 27.4261 22.3272 26.7329 22.4088C26.6114 22.4259 26.3823 22.4411 26.2788 22.4411C26.209 22.4411 26.1393 22.4904 26.1393 22.5569C26.1393 22.6423 26.2429 22.6746 26.4341 22.6746C27.0616 22.6746 27.8245 22.6252 27.9819 22.6252C28.1552 22.6252 28.9878 22.6746 29.3523 22.6746C29.4917 22.6746 29.5774 22.6423 29.5774 22.5569C29.5774 22.4904 29.5415 22.4411 29.422 22.4411H29.2826C29.0216 22.4411 28.7627 22.3423 28.7627 22.0614C28.7627 21.8127 28.8503 21.4653 28.9878 21.1198L29.8543 18.8702C29.8881 18.7886 29.9399 18.7544 30.0096 18.7544H33.5314C33.617 18.7544 33.6349 18.7715 33.6708 18.838L35.0412 22.0614C35.1448 22.293 34.9894 22.4088 34.9018 22.4411C34.8321 22.4733 34.7982 22.4733 34.7982 22.5398C34.7982 22.6233 35.0412 22.6233 35.336 22.6423C36.3937 22.6746 37.5212 22.6746 37.7483 22.6746C37.9216 22.6746 38.0948 22.6423 38.0948 22.5569C38.0948 22.4714 37.9913 22.4411 37.9036 22.4411C37.7483 22.4411 37.5212 22.424 37.2961 22.3594C36.9674 22.2607 36.5511 22.0785 35.9954 20.8218C35.0592 18.6899 32.6131 12.8866 32.3342 12.2905C32.1788 11.9772 32.1271 11.7779 31.9697 11.7779C31.8661 11.7779 31.7964 11.8614 31.6052 12.3227L28.0137 21.1179L28.0157 21.1198ZM17.1657 12.7878C17.1657 12.7062 17.2175 12.655 17.2872 12.6227C17.4426 12.5904 17.9286 12.5411 18.3808 12.5411C20.0122 12.5411 21.0181 13.5491 21.0181 15.3013C21.0181 16.3758 20.6197 17.1199 20.0978 17.4502C19.7333 17.6818 19.317 17.6989 18.9525 17.6989C18.2752 17.6989 17.4964 17.6002 17.2693 17.4844C17.1996 17.4351 17.1657 17.3857 17.1657 17.3022V12.7897V12.7878ZM15.8471 18.5912C15.8471 19.9466 15.8471 21.0553 15.7594 21.6324C15.6897 22.0462 15.6558 22.3101 15.361 22.3765C15.2216 22.4088 15.0304 22.443 14.8929 22.443C14.8053 22.443 14.7714 22.5094 14.7714 22.5588C14.7714 22.6442 14.8571 22.6765 15.0144 22.6765C15.4826 22.6765 16.5064 22.6271 16.5243 22.6271C16.594 22.6271 17.5661 22.6765 18.3987 22.6765C18.572 22.6765 18.6417 22.6233 18.6417 22.5588C18.6417 22.5094 18.6238 22.443 18.5202 22.443C18.3808 22.443 18.0521 22.4107 17.843 22.3765C17.3749 22.3101 17.2872 22.0462 17.2354 21.6324C17.1657 21.0534 17.1657 19.9637 17.1657 18.6064V18.276C17.1657 18.1925 17.1996 18.1602 17.2693 18.1602L19.2114 18.1925C19.315 18.1925 19.3509 18.2096 19.4186 18.276C19.7492 18.6557 20.4245 19.565 21.0659 20.3263C21.9344 21.3837 22.4881 22.0614 23.1475 22.3936C23.5299 22.591 23.9104 22.6765 24.7789 22.6765H25.733C26.0099 22.6765 26.0975 22.6442 26.0975 22.5588C26.0975 22.5094 26.0457 22.443 25.9581 22.443C25.8704 22.443 25.7151 22.443 25.4202 22.3936C25.0378 22.3442 24.5358 22.2114 23.7211 21.4178C22.8367 20.5427 21.779 19.2689 20.5281 17.7806C21.9503 16.6226 22.4025 15.6145 22.4025 14.5742C22.4025 13.5985 21.7252 12.9207 21.3448 12.6569C20.546 12.1272 19.4704 12.0456 18.5003 12.0456C18.0322 12.0456 16.7474 12.0779 16.5921 12.0779C16.5044 12.0779 15.4826 12.0456 14.7874 12.0456C14.6141 12.0456 14.5444 12.0779 14.5444 12.1614C14.5444 12.2107 14.6141 12.2772 14.6659 12.2772C14.8053 12.2772 15.0642 12.2943 15.1858 12.3095C15.6877 12.3759 15.7754 12.6075 15.8092 13.0859C15.8451 13.532 15.8451 13.9288 15.8451 16.1119V18.5912H15.8471ZM47.9529 4.46349C47.917 4.46349 47.9051 4.44071 47.917 4.39515L48.909 1.70895C48.9687 1.55898 49.0305 1.55898 49.0903 1.70895L50.142 4.39515C50.1539 4.44071 50.1539 4.46349 50.1061 4.46349H47.9529ZM46.4151 6.51563C46.2099 7.01111 46.0028 7.35661 45.5207 7.41546C45.4351 7.42685 45.2757 7.43824 45.204 7.43824C45.1562 7.43824 45.1064 7.47241 45.1064 7.51987C45.1064 7.57872 45.1781 7.6015 45.3116 7.6015C45.7498 7.6015 46.2816 7.56733 46.3912 7.56733C46.5127 7.56733 47.0924 7.6015 47.3473 7.6015C47.4449 7.6015 47.5047 7.57872 47.5047 7.51987C47.5047 7.47431 47.4808 7.43824 47.3951 7.43824H47.2975C47.1163 7.43824 46.935 7.3699 46.935 7.17247C46.935 6.99971 46.9948 6.75672 47.0924 6.51563L47.6979 4.94758C47.7218 4.89062 47.7577 4.86784 47.8075 4.86784H50.2635C50.3233 4.86784 50.3352 4.87923 50.3611 4.9248L51.3172 7.17437C51.3889 7.33573 51.2814 7.41736 51.2196 7.44014C51.1718 7.46292 51.1479 7.46292 51.1479 7.50848C51.1479 7.56543 51.3172 7.56543 51.5224 7.57872C52.2614 7.6015 53.0462 7.6015 53.2036 7.6015C53.3251 7.6015 53.4446 7.57872 53.4446 7.51987C53.4446 7.46102 53.3729 7.43824 53.3111 7.43824C53.2016 7.43824 53.0442 7.42685 52.8869 7.38129C52.6578 7.31295 52.367 7.18576 51.9785 6.30871C51.3252 4.82038 49.6201 0.773058 49.4249 0.359213C49.3153 0.1409 49.2795 0.00231934 49.1699 0.00231934C49.0982 0.00231934 49.0484 0.0592705 48.915 0.381994L46.4111 6.51753L46.4151 6.51563ZM35.6368 1.63872C35.9635 1.98422 37.1606 3.18399 38.3956 4.41793C39.5211 5.53607 41.0568 6.97883 41.1664 7.06996C41.76 7.59011 41.8675 7.67174 41.9771 7.67174C42.0488 7.67174 42.0628 7.61479 42.0628 6.96554L42.0867 1.22297C42.0867 0.634477 42.1106 0.438945 42.4611 0.370603C42.5826 0.347823 42.6663 0.347823 42.7161 0.347823C42.7878 0.347823 42.8376 0.290872 42.8376 0.254803C42.8376 0.197852 42.752 0.186461 42.6444 0.186461C42.2082 0.186461 41.8576 0.209242 41.7361 0.209242C41.6146 0.209242 41.1066 0.186461 40.6226 0.186461C40.5011 0.186461 40.4174 0.197852 40.4174 0.254803C40.4174 0.288973 40.4294 0.347823 40.5011 0.347823C40.5867 0.347823 40.8278 0.359213 41.021 0.393384C41.3477 0.450335 41.4074 0.670546 41.4194 1.3046L41.5289 6.21759C41.2022 5.89486 40.0649 4.72926 39.0131 3.69275C37.3678 2.07914 35.8181 0.509184 35.6488 0.347823C35.5392 0.243412 35.3579 0.0478802 35.2364 0.0478802C35.1528 0.0478802 35.091 0.152291 35.091 0.543355V6.15874C35.091 7.04717 35.0552 7.31105 34.7883 7.38129C34.6309 7.42685 34.4377 7.43824 34.352 7.43824C34.3042 7.43824 34.2684 7.47241 34.2684 7.51987C34.2684 7.59011 34.3281 7.6015 34.4377 7.6015C34.9217 7.6015 35.3699 7.56733 35.4655 7.56733C35.5611 7.56733 35.9854 7.6015 36.5909 7.6015C36.7125 7.6015 36.7842 7.57872 36.7842 7.51987C36.7842 7.47431 36.7483 7.43824 36.7005 7.43824C36.6029 7.43824 36.3619 7.42685 36.1687 7.38129C35.8778 7.31295 35.7822 7.06996 35.7563 6.26315L35.6348 1.63872H35.6368ZM29.9061 3.02263C29.9061 1.50013 29.9061 1.22297 29.918 0.911639C29.9419 0.566136 30.0017 0.427554 30.2925 0.370603C30.414 0.347823 30.4857 0.347823 30.5594 0.347823C30.5953 0.347823 30.6451 0.302262 30.6451 0.268091C30.6451 0.21114 30.5973 0.186461 30.4757 0.186461C30.1491 0.186461 29.4599 0.209242 29.4101 0.209242C29.3503 0.209242 28.683 0.186461 28.3324 0.186461C28.2109 0.186461 28.1631 0.209242 28.1631 0.268091C28.1631 0.302262 28.199 0.347823 28.2488 0.347823C28.3205 0.347823 28.4539 0.359213 28.5755 0.381994C28.8045 0.427554 28.8902 0.577526 28.9141 0.911639C28.938 1.22297 28.938 1.50013 28.938 3.02263V4.75204C28.938 5.69743 28.926 6.47007 28.8782 6.87442C28.8424 7.16297 28.8065 7.34712 28.5994 7.39268C28.5018 7.41546 28.3703 7.43824 28.2727 7.43824C28.2129 7.43824 28.189 7.4838 28.189 7.51987C28.189 7.57872 28.2488 7.6015 28.3583 7.6015C28.685 7.6015 29.3503 7.56733 29.4101 7.56733C29.4579 7.56733 30.1471 7.6015 30.7407 7.6015C30.8622 7.6015 30.91 7.56543 30.91 7.51987C30.91 7.4857 30.8861 7.43824 30.8263 7.43824C30.7287 7.43824 30.4997 7.41546 30.3423 7.39268C30.0276 7.34712 29.9917 7.16108 29.9559 6.87442C29.9081 6.47007 29.908 5.69743 29.908 4.75204V3.02073L29.9061 3.02263ZM19.4564 1.38433C19.2991 0.991371 19.1656 0.693326 19.1656 0.566136C19.1656 0.497794 19.1776 0.438945 19.2871 0.393384C19.3847 0.359213 19.554 0.347823 19.6736 0.347823C19.7453 0.347823 19.7831 0.302262 19.7831 0.254803C19.7831 0.207343 19.6855 0.186461 19.4923 0.186461C19.082 0.186461 18.6099 0.209242 18.5003 0.209242C18.3669 0.209242 17.7613 0.186461 17.2534 0.186461C17.0821 0.186461 16.9725 0.197852 16.9725 0.254803C16.9725 0.288973 16.9964 0.347823 17.0562 0.347823C17.1159 0.347823 17.3012 0.347823 17.4705 0.381994C17.8211 0.463623 17.9665 0.566135 18.2095 1.12046L20.8229 7.1288C21.0281 7.6034 21.1018 7.73059 21.2233 7.73059C21.3328 7.73059 21.3926 7.58062 21.6834 6.99022C21.9244 6.50614 22.3965 5.44495 23.0499 4.01548C23.5937 2.81571 24.1155 1.64061 24.2351 1.36345C24.5139 0.695225 24.6832 0.556644 24.8286 0.463623C25.0219 0.347823 25.2649 0.347823 25.3366 0.347823C25.4222 0.347823 25.4581 0.302262 25.4581 0.254803C25.4581 0.207343 25.3983 0.186461 25.2888 0.186461C24.9741 0.186461 24.5139 0.209242 24.4542 0.209242C24.3207 0.209242 23.8367 0.186461 23.4144 0.186461C23.2451 0.186461 23.1734 0.209242 23.1734 0.268091C23.1734 0.313652 23.2331 0.347823 23.2949 0.347823C23.4164 0.347823 23.5359 0.347823 23.6574 0.381994C23.767 0.416164 23.8028 0.509184 23.8028 0.588916C23.8028 0.668648 23.755 0.807229 23.7052 0.9572C23.4761 1.6615 22.0838 5.00453 21.4663 6.3201L19.4584 1.38433H19.4564ZM1.50922 17.8812C1.50922 19.4682 1.50922 20.7743 1.42158 21.4691C1.35186 21.9494 1.26621 22.312 0.919613 22.3784C0.764243 22.4107 0.555091 22.4449 0.399721 22.4449C0.296142 22.4449 0.260287 22.4942 0.260287 22.5436C0.260287 22.6461 0.34594 22.6784 0.537164 22.6784C1.05706 22.6784 2.06298 22.629 2.20241 22.629C2.34185 22.629 3.34777 22.6784 4.19632 22.6784C4.38755 22.6784 4.4732 22.6252 4.4732 22.5436C4.4732 22.4942 4.43934 22.4449 4.33377 22.4449C4.1784 22.4449 3.89953 22.4126 3.65651 22.3784C3.13662 22.312 3.03105 21.9494 2.97926 21.4691C2.89162 20.7743 2.89162 19.4682 2.89162 17.8812V16.2619H2.97926C3.81188 17.2376 7.48897 21.023 8.2698 21.6343C9.01478 22.1962 9.44902 22.5607 10.3693 22.6461C10.7517 22.6784 11.0804 22.6784 11.5664 22.6784H12.4508C12.7457 22.6784 12.8333 22.6252 12.8333 22.5436C12.8333 22.4771 12.7297 22.4449 12.6082 22.4449C12.4867 22.4449 11.9847 22.4126 11.5326 22.2303C10.6999 21.9 10.4051 21.6343 8.94706 20.3453C8.23594 19.7169 4.62857 16.1632 4.1764 15.6829C4.54093 15.269 7.55869 12.4594 7.99293 12.0627C8.77376 11.3527 9.15621 10.9388 9.86733 10.6408C10.2139 10.4927 10.5784 10.4092 10.8394 10.4092C10.9788 10.4092 11.0127 10.3769 11.0127 10.2934C11.0127 10.2099 10.943 10.1776 10.7517 10.1776C10.3175 10.1776 9.17214 10.2269 9.08649 10.2269C8.67018 10.2269 8.13236 10.1776 7.78577 10.1776C7.66426 10.1776 7.57662 10.2099 7.57662 10.2934C7.57662 10.3598 7.64633 10.3921 7.73199 10.4263C7.87142 10.4756 7.95707 10.5743 7.95707 10.7737C7.95707 11.0546 7.5069 11.4837 7.02087 11.964C6.39541 12.6094 3.25614 15.6506 2.96133 15.9657H2.89162V14.9748C2.89162 12.3949 2.89162 11.9317 2.92548 11.4039C2.95934 10.8249 3.09878 10.544 3.56688 10.4623C3.77404 10.4301 3.87961 10.413 4.00112 10.413C4.07083 10.413 4.14055 10.3807 4.14055 10.3143C4.14055 10.2156 4.0549 10.1814 3.86367 10.1814C3.34378 10.1814 2.33786 10.2307 2.1805 10.2307C2.07692 10.2307 1.05307 10.1814 0.272238 10.1814C0.081014 10.1814 -0.00463867 10.2137 -0.00463867 10.3143C-0.00463867 10.3807 0.0650786 10.413 0.134796 10.413C0.290166 10.413 0.58497 10.4301 0.724405 10.4623C1.29609 10.5781 1.43552 10.842 1.46938 11.4039C1.50524 11.9336 1.50524 12.3949 1.50524 14.9748V17.885L1.50922 17.8812Z" fill="#231F20" fill-opacity="0.3"/>
<path fill-rule="evenodd" clip-rule="evenodd" d="M45.1907 36.1659C45.2166 36.1412 45.3142 36.1943 45.3361 36.2741C45.3361 36.3253 45.3341 36.3785 45.2843 36.3766C45.2106 36.4013 45.0891 36.2665 45.1907 36.1659ZM37.4601 37.2479C37.486 37.2233 37.5358 37.172 37.5597 37.1986L37.6314 37.2783L37.5039 37.4055C37.5039 37.3542 37.4063 37.3504 37.4581 37.2479H37.4601ZM18.1364 30.1271C18.1125 30.1594 18.0607 30.167 18.0607 30.167C18.001 30.1177 17.8874 30.0778 17.9034 29.9905C17.995 29.8633 18.1524 30.0398 18.1384 30.129L18.1364 30.1271ZM36.8207 32.5153C36.8047 32.6026 36.6454 32.6254 36.5856 32.5779C36.5019 32.5609 36.5179 32.4735 36.5936 32.4337C36.6693 32.3938 36.8286 32.371 36.8207 32.5153ZM40.9081 29.9563C40.8623 30.0208 40.8384 30.0512 40.7567 30.036C40.7268 30.0113 40.6671 29.9639 40.681 29.8747C40.673 29.8177 40.7507 29.7797 40.7806 29.8025C40.8404 29.8519 40.924 29.8671 40.9081 29.9563ZM42.0574 29.4209C42.0654 29.4779 41.9877 29.5159 41.906 29.5007C41.8762 29.476 41.8164 29.4285 41.8303 29.3393C41.8682 29.2197 42.0494 29.3659 42.0574 29.4209ZM42.2387 29.5671C42.2466 29.6241 42.2148 29.5994 42.1929 29.6317L42.2088 29.5443L42.2387 29.569V29.5671ZM25.9965 34.108C20.712 31.7749 25.7834 34.7801 27.5961 35.4008C28.0363 35.5698 28.3789 35.7349 28.8709 35.7995C29.0661 35.828 29.1816 35.976 29.341 36.0482C29.0044 36.1583 28.6538 36.238 28.2594 36.2456C28.0403 36.219 27.8411 36.3633 27.6279 36.3937C26.861 36.5322 26.0862 36.6139 25.3751 36.5436C24.9966 36.5398 24.6321 36.4506 24.2696 36.3595C24.0126 36.2532 23.7556 36.1469 23.4688 36.0178C23.0385 35.8223 22.5605 35.6913 22.1462 35.4065C22.0247 35.3097 22.2697 35.1028 22.2557 34.9908C22.2478 34.9338 22.186 35.0857 22.1342 35.0933C22.0047 35.1407 21.937 35.2357 21.7996 35.2262C21.7458 35.2338 21.7617 35.1464 21.7239 35.0648C21.6263 34.9357 21.5048 34.8389 21.3155 34.837C20.8156 34.7364 20.6682 34.2162 20.2518 33.9334C19.7758 33.6012 19.5686 33.0317 19.0846 32.6444C18.971 32.6026 19.1384 32.4375 19.0726 32.3331C18.6165 31.513 18.3794 30.5182 18.3874 29.5197C18.3974 29.1761 18.5288 28.9293 18.6523 28.6255C18.7997 28.0902 19.3236 27.9592 19.6304 27.6004C19.6543 27.5681 19.6164 27.4884 19.5626 27.496C19.0408 27.4277 18.8396 27.9706 18.5268 28.2724C18.2818 28.4794 18.0986 28.7337 17.8854 28.9634C17.4811 29.3925 17.5608 29.8101 17.5946 30.2904C17.6524 30.7384 17.6265 31.1712 17.8356 31.5414C18.0607 32.0236 18.2619 32.5362 18.6065 32.9159C18.8615 33.2215 19.1105 33.4721 19.3435 33.81C19.6822 34.332 20.3016 34.5295 20.716 35.0136L20.7299 35.1256C20.8594 35.0781 20.8813 35.247 20.9869 35.2319C21.2896 35.2736 21.4769 35.6761 21.7876 35.7748C22.174 35.8336 22.4529 36.1089 22.8453 36.2228C23.4588 36.3633 24.0325 36.6234 24.646 36.7657C25.1161 36.8417 25.5543 37.0923 26.0483 36.9366C26.4886 36.7885 26.9049 36.8721 27.4068 36.7714C27.8251 36.6537 28.1658 36.5778 28.598 36.5721C28.7574 36.5493 28.8789 36.4468 29.0382 36.424C29.339 36.4373 29.576 36.3139 29.821 36.2095C30.56 36.4411 31.2871 36.6556 32.0361 36.8474C32.4544 36.9366 32.8926 37.1568 33.3687 36.9347C33.4443 36.91 33.4404 37.0676 33.538 37.1207C34.2949 37.5327 35.257 37.5308 36.1434 37.7111C36.7589 37.8061 37.3983 37.9275 38.0138 37.9693C38.6054 37.9845 39.1233 38.0775 39.7408 38.0661C40.5575 38.0092 41.4459 38.0339 42.2626 37.9769C42.8064 37.9389 43.3542 37.7453 43.9736 37.6827C44.4437 37.6162 44.864 37.6542 45.3162 37.3523C45.9437 36.9784 46.5353 36.9936 47.095 36.331C47.1966 36.1773 47.4695 36.1583 47.573 36.0045C47.8579 35.4654 48.2623 35.0591 48.4754 34.3871C48.7124 33.7416 48.5491 33.3468 48.5132 32.8247C48.4754 31.3383 47.0492 29.9715 46.6727 31.2643C47.0751 31.9781 47.6926 32.6235 47.589 33.4569C47.5691 33.6126 47.3519 34.3434 47.2902 34.4402C47.093 34.7535 46.6209 34.8123 46.358 35.0534C46.0672 35.3192 46.3361 35.6685 46.0413 35.8792C45.9835 35.921 45.9437 35.8716 45.87 35.8488C45.6747 35.7862 45.376 35.8355 45.2485 36.014C45.121 36.1924 44.88 36.0899 44.7266 36.1829C44.129 36.5398 43.3801 36.9081 42.7626 36.9043C42.1212 36.9005 41.7088 37.2271 41.0913 37.1549C40.5754 37.0942 40.3145 36.8778 39.7448 37.0505C39.444 37.1416 39.1074 37.0505 38.8524 37.1321C38.7329 37.1701 38.6353 36.9442 38.5098 37.0182V37.0695C38.4839 37.0942 38.5815 37.1492 38.5775 37.2536C38.5437 37.6428 38.2309 37.2441 37.9859 37.1853C37.6154 37.1492 37.3047 36.7506 36.9541 36.9499C36.5298 37.1207 36.4083 37.0391 36.0876 37.0049C35.2271 36.8512 34.3407 36.6727 33.4822 36.4658C32.6038 36.2874 31.7632 36.0633 30.9365 35.8185C31.0959 35.7444 31.2532 35.6723 31.4305 35.6229C31.9544 35.49 32.3807 35.23 32.9045 35.0971C33.1396 35.0344 33.277 34.8446 33.5439 34.8066C33.5977 34.799 33.7192 34.6965 33.6216 34.5674C33.6216 34.5674 33.6674 34.5029 33.6973 34.5276C33.8925 34.7857 34.1077 34.5541 34.3347 34.4364C34.6375 34.2276 34.8646 34.108 35.1395 33.9258C35.5359 33.641 35.9621 33.3791 36.4263 33.1987C36.7609 33.0658 37.0358 32.8836 37.3704 32.7507C37.47 32.6786 37.5616 32.5514 37.7429 32.4982C38.0218 32.3103 38.3325 32.2097 38.5457 31.9781C38.8584 31.6762 39.2528 31.5908 39.5735 31.3459C39.8245 31.1959 40.5177 30.8979 40.5874 30.6017C40.6651 30.3625 41.2806 30.3037 41.4857 30.2164C41.5694 30.2335 41.669 30.1613 41.6531 30.0493C41.669 29.962 41.7068 29.8424 41.8742 29.8747C42.1849 29.9734 42.414 29.6545 42.7187 29.4969C43.0454 29.307 43.3422 29.2938 43.6768 29.1609C43.882 29.0735 44.0414 29.0508 44.2625 28.878C44.5135 28.728 44.8162 28.7698 45.0831 28.7318C46.1926 28.5154 47.2683 28.4775 48.3379 28.58C48.7483 28.6065 49.0411 28.7926 49.3917 28.7717C49.4753 28.7888 49.4534 28.6198 49.3698 28.6028C48.6965 28.4129 48.0232 28.225 47.3559 28.0902C47.2723 28.0731 47.2205 27.8814 47.1528 27.9763C46.8779 28.1585 46.6149 27.9953 46.2883 27.9858C45.8859 28.0143 45.5234 27.9231 45.1728 27.9459C44.1111 27.8985 43.1151 28.1547 42.1889 28.5154C42.0594 28.5629 41.9538 28.5781 41.9518 28.7774C41.912 29.0963 41.6112 28.654 41.5037 28.8704C41.418 29.0546 41.7148 29.0394 41.7068 29.1837C41.7148 29.2406 41.6311 29.2235 41.6311 29.2235C41.4798 29.102 41.3383 28.8382 41.185 28.916C40.8882 29.1305 40.8802 29.0735 40.6053 29.2558C40.5057 29.3279 40.3464 29.3507 40.3085 29.4703C40.2926 29.5576 40.2308 29.7095 40.0954 29.7C40.0356 29.6507 40.0276 29.5956 40.0197 29.5387C39.944 29.3773 39.6014 29.8557 39.4938 29.8709C39.1671 30.0607 38.6771 30.672 38.3803 30.8865C37.9082 31.2111 37.4043 31.5111 36.9063 31.8736C36.6314 32.0559 36.3884 32.2609 36.1056 32.3881C35.6972 32.6121 35.3227 32.8665 34.9801 33.1437C34.6076 33.3961 34.2491 33.5613 33.8766 33.8157C33.4802 34.1004 33.046 34.3055 32.5599 34.5181C32.4085 34.5978 32.301 34.8123 32.1416 34.8351C31.5939 34.9984 31.2134 35.397 30.6656 35.5603C30.574 35.5888 30.4843 35.621 30.3947 35.6533C29.4645 35.3685 28.5482 35.0629 27.616 34.7744C27.0264 34.6016 26.5881 34.3814 26.0005 34.1061L25.9965 34.108ZM32.8986 40.7732V40.8302L32.8727 40.8017L32.8986 40.7732ZM32.1556 41.1301C32.2352 41.0997 32.2372 41.1567 32.2631 41.1833C32.291 41.2117 32.2372 41.2687 32.2113 41.2972C32.0779 41.3294 32.0739 41.1586 32.1536 41.1282L32.1556 41.1301ZM30.5102 41.9046C30.5102 41.8477 30.5899 41.8743 30.5899 41.8743L30.6995 41.9844C30.6218 42.0717 30.4843 41.9901 30.5102 41.9046ZM34.751 40.8131C34.751 40.87 34.7789 40.8966 34.8347 40.9536C34.8885 40.9536 34.9423 40.9517 34.9403 40.8947C34.9921 40.8359 34.9383 40.7808 34.8845 40.7827C34.8566 40.7542 34.8028 40.7561 34.751 40.815V40.8131ZM20.6642 41.7718C20.6662 41.8857 20.7219 41.9977 20.8574 42.0223C21.4251 42.2065 21.9649 42.364 22.5306 42.4912C23.0425 42.6203 23.5007 42.7513 24.0126 42.8234C24.6839 42.8918 25.3034 43.019 25.9746 42.9753C26.8869 42.9544 27.8291 43.1291 28.6797 42.7703C28.9187 42.6792 29.1597 42.645 29.4266 42.5824C29.9346 42.4855 30.335 42.3906 30.813 42.2103C31.6915 41.8781 32.54 41.4623 33.3886 41.0447C34.0519 40.7182 34.7152 40.3897 35.4064 40.0917C35.512 40.0328 35.6992 40.0006 35.749 39.8278C35.9522 39.3134 36.2071 39.9019 36.4402 39.5279C36.5976 39.3551 37.0019 39.4861 37.1015 39.1444C37.1493 38.9166 37.2668 39.3096 37.48 39.2488C37.8027 39.0666 38.209 39.3115 38.4998 39.0495C38.5257 39.021 38.4979 38.9356 38.4421 38.8805C37.7887 38.4439 36.986 38.7495 36.2091 38.797C35.994 38.8027 35.8048 38.666 35.5618 38.6432C35.4263 38.6186 35.3466 38.6489 35.1853 38.5958C34.8068 38.4914 34.5379 38.442 34.1355 38.423C33.7611 38.4325 33.0778 37.9105 32.9264 38.3661C32.8786 38.5939 33.4384 38.4382 33.7073 38.4895C34.3547 38.7002 35.0259 38.7135 35.6753 38.9242C35.7291 38.9242 35.8665 39.0609 35.8127 39.1197C35.7351 39.264 35.6016 39.2944 35.496 39.3532C34.9104 39.5943 34.3248 39.7766 33.8507 40.1278C33.773 40.2151 33.7511 40.4695 33.6694 40.3859C33.3687 40.1392 33.2412 40.3954 32.9743 40.515C32.7611 40.5758 32.546 40.5815 32.3886 40.6992C32.0739 40.9896 31.6695 40.9137 31.3269 41.1776C31.2214 41.2934 31.1138 41.2402 30.9266 41.2725C30.58 41.3655 30.3688 41.5401 30.074 41.5762C29.7812 41.6673 29.5422 41.8154 29.2494 41.9065C28.9565 41.9977 28.6896 42.0622 28.4506 42.1514C28.3171 42.1837 28.1837 42.2141 28.0223 42.2179C27.62 42.2558 27.3032 42.4324 26.8471 42.4153C26.5782 42.421 26.3133 42.5406 26.0722 42.5748C25.1639 42.7095 24.1441 42.7342 23.2816 42.4722C23.1461 42.4476 22.9589 42.4229 22.8234 42.3982C22.0685 42.2463 21.4729 41.9217 20.7697 41.711L20.6642 41.7699V41.7718ZM53.2381 31.5642C53.3297 31.437 53.4054 31.3972 53.3855 31.2301C53.2321 30.4518 52.4294 30.1101 51.8636 29.7057C51.5688 29.5197 51.282 29.3887 50.9952 29.2596C50.7681 29.178 50.5569 29.0071 50.3139 29.0147C50.1466 28.9805 49.9594 28.7793 49.8438 28.9388C49.8219 28.971 49.8578 29.0508 49.8877 29.0754C50.2343 29.4551 50.7422 29.4096 51.1426 29.7816C51.4135 30 51.7222 30.298 51.9254 30.6112C52.1585 30.9491 52.3756 31.175 52.4791 31.5604C52.5748 31.8888 52.013 32.1413 52.26 32.3919C52.3198 32.4413 52.3975 32.4014 52.4732 32.3615C52.7102 32.0996 52.9692 31.8053 53.2361 31.568L53.2381 31.5642Z" fill="#231F20" fill-opacity="0.3"/>
</g>
<defs>
<clipPath id="clip0_16_13326">
<rect width="72" height="43" fill="white"/>
</clipPath>
</defs>
</svg>
