<svg width="146" height="78" viewBox="0 0 146 78" fill="none" xmlns="http://www.w3.org/2000/svg">
<g clip-path="url(#clip0_34_255)">
<path d="M5.87316 63.7303L9.94145 74.21L8.59511 77.799H8.20487L2.25365 63.2326C1.52194 61.3951 0.721942 61.3185 -0.00976562 61.3185V60.9548H7.17072V61.3185C5.02438 61.3185 5.85365 63.6633 5.88292 63.7303H5.87316ZM14.4585 63.7303L18.3805 74.2292L16.9951 77.7894H16.6049L10.878 63.223C10.1658 61.3855 9.31707 61.3089 8.58536 61.3089V60.9453H15.7561V61.3089C13.5902 61.3089 14.4683 63.6537 14.4683 63.7207L14.4585 63.7303ZM19.1415 60.9548H25.8244V61.3185C24.3805 61.3185 23.2195 61.8927 21.0927 67.0321L20.7512 66.9364C21.0927 65.788 22.9171 61.3185 19.1415 61.3185V60.9548Z" fill="white"/>
<path d="M37.8049 60.9548V61.3185C36.7512 61.3185 35.9024 61.8449 35.9024 63.3283V75.0714C35.9024 76.6984 36.7805 77.4353 37.8049 77.4353V77.799H31.0049V77.4353C32.0488 77.4353 32.9073 76.6888 32.9073 75.0714V63.3283C32.9073 61.8449 32.0781 61.3185 31.0049 61.3185V60.9548H37.8049Z" fill="white"/>
<path d="M47.8535 60.9548L58.3901 74.0186V77.799H57.3657L45.5121 63.0604C43.9511 61.1462 43.2389 61.3568 42.6145 61.3185V60.9548H47.8535ZM50.1169 77.4353V77.799H42.8779V77.4353C46.4877 77.4353 46.4877 72.8415 46.4877 71.7696H46.8584C46.8584 72.8223 46.8389 77.4353 50.1267 77.4353H50.1169ZM54.7511 60.9548H61.9413V61.3185C58.3316 61.2898 58.3804 65.8645 58.3804 66.9843H58.0096C58.0096 65.855 58.0389 61.2898 54.7413 61.3185V60.9548H54.7511Z" fill="white"/>
<path d="M71.1708 77.799H66.8098V77.4353C67.8342 77.4353 68.1464 76.3826 68.1464 74.7556V63.8739C68.1464 62.3904 67.883 61.3185 66.8098 61.3185V60.9548H71.1708V77.799ZM72.8976 61.3377V60.9548H79.4537V65.3764H79.083C78.761 61.9597 75.0342 61.4334 72.8879 61.3377H72.8976ZM72.8976 69.5205V69.0707C74.0391 69.0037 75.8244 68.64 76.0683 66.6493H76.4391V71.9131H76.0683C75.8244 69.932 74.0488 69.5875 72.8976 69.5205ZM79.7757 77.799H72.8976V77.4162C75.0635 77.3013 78.8001 76.6984 79.4049 72.7075H79.7757V77.799Z" fill="white"/>
<path d="M103.122 75.0236H103.493C103.463 76.9664 102.029 77.866 100.663 77.9904C100.663 77.9904 98.2732 78.2297 97.2975 76.8228L95.9317 74.8417C94.9756 77.598 90.0097 79.5983 87.5414 76.306C85.1317 73.0042 88.3219 70.401 90.2439 69.3004L90.4683 69.6353C89.1024 70.6211 88.1268 72.985 90.0585 75.3011C91.3756 76.8802 94.4488 77.0238 95.6683 74.5163L90.1561 66.6685C87.8927 63.558 89.3951 60.572 92.1268 60.0935C93.7853 59.8351 94.9268 60.2658 95.6585 61.0984L95.3171 61.3664C94.6341 60.6486 93.6097 60.3328 92.7317 60.6486C91.4634 61.0984 90.8585 63.0412 92.0292 64.7352L99.2 75.0905C99.9317 76.1624 101.2 76.1625 101.2 76.1625C102.078 76.1625 102.927 75.8945 103.122 75.0331V75.0236ZM97.8536 71.3389L97.6293 71.0518C98.439 69.8842 99.3366 69.5683 99.8439 69.4535C100.38 69.3386 101.063 69.3578 101.502 69.7119C102.088 70.1713 102.205 71.0518 101.649 71.6739C101.161 72.2481 100.263 72.3151 99.6488 71.8174C99.3561 71.5782 99.1902 71.2623 99.161 70.9082C99.161 70.5062 98.478 70.6211 97.8439 71.3389H97.8536Z" fill="white"/>
<path d="M116.995 60.7922V61.1558C114.722 61.4621 113.141 63.2614 113.141 69.3865C113.141 75.5117 114.771 77.3013 116.995 77.6172V77.9809C112.341 77.6172 109.385 74.1335 109.385 69.3961C109.385 64.6587 112.332 61.1654 116.995 60.8113V60.7922ZM118.702 61.1558V60.773C120.8 60.8209 122.575 61.1367 123.922 62.2086L123.629 65.9411H123.258C122.332 62.8594 120.8 61.3951 118.702 61.1558ZM123.258 72.8032H123.629L123.922 76.5357C122.341 77.5598 120.829 77.9234 118.702 77.9904V77.6076C120.966 77.3013 122.819 75.4829 123.258 72.8032Z" fill="white"/>
<path d="M136.976 77.6076V77.9713C132.195 77.5884 129.658 73.9995 129.658 69.5013C129.658 65.0032 132.195 61.2036 136.976 60.7921V61.1749C134.566 61.5386 133.151 63.6154 133.151 69.5013C133.151 75.3872 134.566 77.2726 136.976 77.6076ZM138.683 77.9713V77.6076C141.073 77.2726 142.458 75.4063 142.458 69.5013C142.458 63.5963 141.073 61.5386 138.683 61.1749V60.7921C143.483 61.2036 146 65.0223 146 69.5013C146 73.9803 143.493 77.6076 138.683 77.9713Z" fill="white"/>
<path d="M81.7637 16.1072L76.3881 0H62.7686L66.271 10.4989C66.9832 12.6236 71.1198 14.1548 72.1246 17.1887L80.5637 42.4741H88.7881L91.9783 32.894L88.671 22.7971C87.9588 20.6724 82.7686 19.1411 81.7539 16.1072H81.7637Z" fill="white"/>
<path d="M62.9247 11.5708L59.0613 0H42.8174C42.8174 0 46.0271 0.87092 47.8027 6.11558L59.9198 42.4741H69.6076L62.232 20.3661C61.2174 17.3323 63.6271 13.705 62.9149 11.5804L62.9247 11.5708Z" fill="white"/>
<path d="M87.3442 0L91.6564 12.9298C92.6711 15.9637 89.4711 19.8398 90.1833 21.974L92.8955 30.1568L100.905 6.12515C102.691 0.880491 105.891 0.00957055 105.891 0.00957055H87.3442V0Z" fill="white"/>
</g>
<defs>
<clipPath id="clip0_34_255">
<rect width="146" height="78" fill="white"/>
</clipPath>
</defs>
</svg>
