<svg width="82" height="34" viewBox="0 0 82 34" fill="none" xmlns="http://www.w3.org/2000/svg">
<g opacity="0.3" clip-path="url(#clip0_16_13323)">
<path fill-rule="evenodd" clip-rule="evenodd" d="M74.6832 8.46169V7.43528C75.1634 7.37255 75.602 7.23 75.9628 6.96199C76.5235 6.4887 77.001 5.79301 77.001 4.33322C77.001 2.87343 76.2626 1.45926 74.6832 1.06865V0.53834C75.5437 0.601066 76.382 0.743623 77.0204 1.09146C77.9808 1.64459 78.6997 2.63109 78.6997 4.06807C78.6997 5.91561 77.2202 7.04467 76.2015 7.43528C76.1211 7.57784 76.1821 7.76316 76.282 7.94849C77.8809 10.5972 78.9606 12.2594 80.379 13.531C80.7593 13.8789 81.2395 14.0243 81.8973 14.0443C81.9584 14.107 81.9584 14.2495 81.8973 14.2894C81.6974 14.3294 81.3977 14.3921 81.0785 14.3921C79.241 14.3921 78.2806 13.8789 76.8427 11.7861C76.3237 11.0277 75.4826 9.63067 74.8442 8.66698C74.7832 8.58429 74.7443 8.52442 74.6832 8.46169ZM74.6832 0.53834V1.07151C74.4223 1.00878 74.1225 0.968864 73.8033 0.968864C73.2038 0.968864 72.6431 1.03159 72.5237 1.15419C72.4044 1.23687 72.3849 1.50203 72.3627 2.24333V6.81943C72.3627 7.14731 72.4016 7.26991 72.4627 7.3526C72.5432 7.43528 72.9234 7.49515 73.8006 7.49515C74.1003 7.49515 74.4001 7.47519 74.6805 7.43243V8.45884C74.4417 8.13096 74.1614 7.96559 73.5008 7.96559C72.4016 7.96559 72.3627 8.00551 72.3627 8.4788V10.8595C72.3627 12.0713 72.4238 13.0977 72.6431 13.4056C72.8429 13.6736 73.2815 13.7534 73.6035 13.8162L74.0032 13.8988C74.0642 14.0015 74.0643 14.1669 73.9643 14.2267C73.0039 14.1868 72.4044 14.164 71.605 14.164C70.8056 14.164 70.206 14.184 69.1679 14.2267C69.068 14.164 69.068 14.0015 69.129 13.8988L69.6287 13.8162C69.9479 13.7534 70.367 13.6736 70.5669 13.4056C70.7861 13.0977 70.8472 12.0713 70.8472 10.8595V3.82287C70.8472 2.6539 70.7667 1.80995 70.6085 1.5448C70.4475 1.25683 70.2088 1.07151 69.7286 1.03159L69.2678 0.991674C69.1873 0.90899 69.1873 0.766433 69.2873 0.663791C70.825 0.521233 72.1851 0.498424 73.8033 0.498424C74.0837 0.498424 74.3835 0.518382 74.6832 0.53834ZM56.3164 14.4976V14.0243H56.5551C59.1531 14.0243 61.4903 12.2794 61.4903 7.84584C61.4903 4.66396 60.0913 0.846265 56.3136 0.723665V0.230416H56.3941C60.9296 0.230416 63.3084 3.61758 63.3084 7.29272C63.3084 11.501 60.2718 14.4976 56.3525 14.4976H56.3136H56.3164ZM4.6965 0.230416C2.19836 0.230416 0.738339 1.83276 0.738339 3.72023C0.738339 5.60769 1.79866 6.61415 2.97556 7.3754L4.73536 8.50446C6.19538 9.42823 6.41466 10.5174 6.41466 11.4411C6.41466 12.8382 5.5764 14.0271 3.8971 14.0271C1.6793 14.0271 0.699479 11.9943 0.338637 10.9279C0.258141 10.8453 0.0777199 10.8253 0 10.9479C0 12.1397 0.238711 13.3286 0.580123 13.7392C0.940965 13.9644 1.95965 14.4976 3.53903 14.4976C6.11766 14.4976 7.77476 12.938 7.77476 10.6998C7.77476 8.7297 6.47573 7.53792 5.5764 6.96484L3.69724 5.7531C2.99777 5.30262 1.95965 4.41876 1.95965 3.1671C1.95965 2.30605 2.39821 0.703707 4.37729 0.703707C6.35637 0.703707 6.856 2.10077 7.19464 3.0445C7.29456 3.12719 7.51385 3.08442 7.57491 2.98178C7.57491 2.26329 7.37506 1.05155 7.19464 0.558298C6.95593 0.53834 6.73387 0.475615 6.51459 0.435699C6.01496 0.333057 5.27662 0.230416 4.6965 0.230416ZM56.3191 0.230416V0.723665C56.2386 0.703707 56.1804 0.703707 56.0999 0.703707C53.8821 0.703707 51.123 2.16065 51.123 6.79947C51.123 9.87872 52.522 13.8418 56.3191 14.0243V14.4976C51.9224 14.4776 49.3244 11.2131 49.3244 7.51796C49.3244 3.4123 52.2833 0.293141 56.3191 0.230416ZM26.0417 5.6305C26.0417 4.89205 26.0223 2.14069 26.3415 1.38228C26.422 1.177 26.8022 1.01163 27.1797 0.931799L27.7404 0.829158C27.8209 0.706558 27.8015 0.56115 27.721 0.501275C27.0215 0.541191 26.483 0.564001 25.7419 0.564001C25.0008 0.564001 24.243 0.544043 23.4436 0.501275C23.3631 0.541191 23.3437 0.746475 23.4242 0.829158L24.0238 0.911841C24.5234 0.994525 24.8842 1.13708 25.023 1.36232C25.3617 1.99813 25.4033 4.66681 25.4033 5.63335V8.36475C25.4033 11.4839 24.3041 13.8247 21.187 13.8247C18.0699 13.8247 17.0095 11.5466 17.0095 8.38471V3.86278C17.0095 2.671 17.0706 1.64459 17.2899 1.3167C17.5092 1.0487 17.9283 0.968864 18.2503 0.906139L18.7499 0.823456C18.8304 0.700856 18.8304 0.555447 18.7305 0.495573C17.8312 0.535489 17.1122 0.558298 16.2518 0.558298C15.3913 0.558298 14.7918 0.53834 13.8536 0.495573C13.7536 0.578256 13.7536 0.700856 13.8341 0.823456L14.2727 0.906139C14.5919 0.968864 15.011 1.0487 15.2109 1.3167C15.4302 1.62463 15.4912 2.671 15.4912 3.86278V8.68693C15.4912 10.9251 15.9714 12.4448 17.0095 13.3457C18.0088 14.2296 19.2884 14.4947 20.8456 14.4947C22.4028 14.4947 23.8822 13.9815 24.7427 13.0178C25.8224 11.7662 26.0417 10.0213 26.0417 8.31629V5.62765V5.6305ZM35.0544 0.558298C34.5354 0.558298 33.8359 0.495573 33.6166 0.415741C33.3973 0.335908 33.3168 0.147732 33.278 0.0450909C33.1975 -0.0176345 33.0976 -0.0176345 32.9976 0.0450909C32.8783 0.803498 32.5369 2.0352 32.2177 2.87914C32.2565 3.02169 32.4564 3.06446 32.5785 3.02169C32.8588 2.50849 33.0781 2.0352 33.5389 1.56476C33.958 1.09146 34.8185 1.03159 36.0565 1.03159H37.2167C37.8357 1.03159 37.8551 1.05155 37.8551 1.85272V10.9051C37.8551 12.1169 37.7941 13.1433 37.5553 13.4313C37.3555 13.6765 36.9947 13.7591 36.6754 13.8019L35.7956 13.9045C35.7151 14.0072 35.715 14.1497 35.815 14.2324C36.6338 14.1925 37.4526 14.1697 38.6323 14.1697C39.651 14.1697 40.3921 14.1897 41.2498 14.2324C41.3303 14.1497 41.3303 14.0072 41.2692 13.9045L40.5892 13.8219C40.27 13.7819 39.8509 13.6793 39.651 13.4313C39.4317 13.1233 39.3707 12.1169 39.3707 10.9051V1.85272C39.3707 1.05155 39.3901 1.03159 39.9896 1.03159H41.3497C42.4489 1.03159 43.2289 1.13423 43.748 1.60752C43.9867 1.81281 44.1477 2.30605 44.2864 3.10723C44.3864 3.18991 44.5862 3.16995 44.6473 3.06731C44.5862 2.57406 44.7278 0.891883 44.9471 0.0907093C44.9082 0.00802591 44.7472 -0.0119322 44.6667 0.027984C44.5474 0.233267 44.3864 0.398634 44.2282 0.43855C43.8895 0.541191 43.4676 0.56115 42.8292 0.56115H35.0544V0.558298Z" fill="#231F20"/>
<path fill-rule="evenodd" clip-rule="evenodd" d="M79.3797 29.8117V29.4211C80.1791 28.5999 80.6399 27.6362 80.8175 26.9577C80.737 26.7324 80.5372 26.5271 80.2374 26.5271C79.9571 26.5271 79.7572 26.6697 79.3991 27.0004C79.3991 27.0004 79.3992 27.0204 79.3797 27.0204V26.5271C79.4408 26.4872 79.4991 26.4444 79.5407 26.4245C80.0015 26.1565 80.3013 26.0766 80.601 26.0766C80.7204 26.0766 80.8009 26.1166 80.8814 26.1593C80.9202 26.1793 81.0424 26.2819 81.1007 26.4045L81.4393 25.6461C81.6197 25.5435 81.9389 25.6661 82 25.8115C81.8196 26.262 80.8203 28.8907 80.44 29.9799C80.379 30.1852 80.44 30.2678 80.5205 30.2678C80.7204 30.2678 81.059 30.0626 81.7196 29.4667C81.8001 29.4667 81.8806 29.5294 81.8806 29.6092C81.4004 30.2878 80.5816 30.9436 79.9432 30.9436C79.6628 30.9436 79.6046 30.7183 79.6046 30.6356C79.6046 30.553 79.624 30.4304 79.7239 30.1624L80.1042 29.096L80.0653 29.0761C79.8655 29.3441 79.6268 29.5893 79.3853 29.8145L79.3797 29.8117ZM79.3797 26.5271V27.0204C78.6414 27.7189 77.9613 29.2585 77.9613 30.0797C77.9613 30.2222 78.0224 30.3249 78.1223 30.3249C78.2417 30.3249 78.6025 30.1595 79.2604 29.5437L79.3797 29.4211V29.8117C78.6802 30.4902 77.9197 30.9407 77.5006 30.9407C77.1814 30.9407 76.9815 30.6128 76.9815 30.285C76.9815 29.997 77.2424 29.0533 78.0196 27.9641C78.4998 27.2656 78.9578 26.8151 79.3797 26.5271ZM58.734 30.7554V30.1595C58.7729 30.0968 58.8339 30.0369 58.8728 29.9742C59.3918 29.2557 59.9331 27.6961 59.972 27.0603C59.972 26.6896 59.9109 26.2591 59.4918 26.2591C59.2919 26.2591 59.031 26.3618 58.7312 26.7324V26.1166C59.031 25.974 59.3113 25.9113 59.5695 25.9113C60.4078 25.9113 60.8075 26.5471 60.7686 27.411C60.7297 28.0668 60.3883 29.2186 59.5306 30.1196C59.2503 30.4275 58.9699 30.6328 58.7312 30.7554H58.734ZM65.1292 24.3916C65.5484 23.0972 65.6483 22.7693 65.8093 22.3388L65.7482 22.2561C65.2097 22.3188 64.488 22.5441 64.2882 22.6268C64.2271 22.6667 64.2271 22.7693 64.2882 22.8121L64.488 22.9147C64.6685 22.9974 64.7878 23.12 64.5075 23.9411L62.6478 29.5665C62.4479 30.1823 62.409 30.4076 62.409 30.5929C62.409 30.7782 62.509 30.9407 62.8476 30.9407C63.808 30.9407 64.5463 29.9542 64.8461 29.3612C64.8461 29.2386 64.785 29.1759 64.6657 29.1958C64.1272 29.8117 63.5859 30.4076 63.3278 30.4076C63.2084 30.4076 63.189 30.285 63.2889 29.997L65.1265 24.3916H65.1292ZM66.3478 30.5102C66.2867 30.6528 66.3283 30.7554 66.3866 30.8381C66.4449 30.9208 66.5254 30.9407 66.5865 30.9407C67.3859 30.9407 68.585 29.8744 68.746 29.5237C68.746 29.4211 68.7071 29.3384 68.585 29.3184C68.1853 29.7917 67.5663 30.2023 67.3665 30.2023C67.286 30.2023 67.286 30.0597 67.347 29.9343L68.7266 26.5471C68.8653 26.1992 68.8653 26.0966 68.7876 26.0339C68.7488 25.9712 68.6877 25.9113 68.6072 25.9113C68.2269 25.9113 67.3276 26.3418 66.6892 27.1031C66.6698 27.2057 66.728 27.2884 66.8502 27.3083C67.4303 26.8151 67.7301 26.6725 67.8106 26.6725C67.8911 26.6725 67.8911 26.7752 67.83 26.8978L66.3505 30.5102H66.3478ZM68.907 23.0573C68.4462 23.0573 68.288 23.5505 68.288 23.8157C68.288 24.021 68.3879 24.2662 68.7071 24.2662C69.068 24.2662 69.3067 23.8955 69.3067 23.5277C69.3067 23.2597 69.1679 23.0544 68.907 23.0544V23.0573ZM72.8429 26.4045C72.9428 26.1166 72.8235 25.9113 72.5432 25.9113C71.963 25.9113 71.2441 26.4045 70.8056 27.0204C70.8056 27.123 70.8666 27.2057 70.9443 27.2057C71.3246 26.8579 71.7437 26.6098 72.0047 26.6098C72.1046 26.6098 72.1046 26.7125 72.0435 26.8778C71.9825 27.0432 70.7445 30.4902 70.6834 30.6356C70.5835 30.9236 70.9027 30.9436 71.0221 30.9436C71.1414 30.9436 71.1831 30.9236 71.2413 30.801C71.9214 29.4866 72.4016 28.5629 73.0206 27.7845C73.659 26.9634 74.339 26.3475 74.6194 26.3475C74.7998 26.3475 74.7998 26.4901 74.7998 26.6355C74.7998 26.8807 74.661 27.2912 74.5611 27.5193C74.3002 28.1152 73.8616 29.2842 73.6229 29.8601C73.3842 30.456 73.3426 30.5587 73.3426 30.6613C73.3426 30.8039 73.523 30.9493 73.6229 30.9493C74.2613 30.9493 75.1828 30.3733 75.6214 29.6149C75.6214 29.5322 75.602 29.4296 75.441 29.4496C75.1024 29.8601 74.5417 30.2707 74.3418 30.2707C74.2613 30.2707 74.2807 30.1481 74.3224 30.0455C74.364 29.9428 75.1828 27.9926 75.4021 27.3967C75.5021 27.1287 75.5826 26.7609 75.5826 26.5556C75.5826 26.165 75.3827 25.9198 74.9441 25.9198C74.0642 25.9198 72.9068 27.2342 72.0852 28.5258L72.0463 28.5058L72.8457 26.4131L72.8429 26.4045ZM58.734 26.1166V26.7324C58.6951 26.7723 58.6729 26.8151 58.6535 26.8351C57.9735 27.7788 57.5155 29.1958 57.4933 29.8316C57.4738 30.2422 57.632 30.59 57.9735 30.59C58.1733 30.59 58.4342 30.5073 58.734 30.1595V30.7554C58.3537 30.9208 58.054 30.9407 57.8735 30.9407C57.1352 30.9407 56.6356 30.3876 56.7133 29.3612C56.7521 28.6227 57.1935 27.4737 57.9735 26.6925C58.2344 26.4245 58.4925 26.242 58.734 26.1166ZM52.3582 30.1196V29.5864C52.4193 29.5465 52.4581 29.4838 52.5192 29.4211C53.4185 28.4773 53.7572 27.7588 53.9376 27.123C54.0764 26.6298 53.9181 26.262 53.6378 26.262C53.3575 26.262 53.0577 26.4872 52.7579 26.7752C52.6385 26.8978 52.497 27.0432 52.3582 27.2057V26.3646C52.8384 26.0567 53.2964 25.9141 53.6572 25.9141C53.8377 25.9141 54.118 26.0367 54.2568 26.2848L55.0756 23.8413C55.3143 23.1856 55.356 22.9575 55.195 22.8548L54.9146 22.6695C54.8952 22.6068 54.9146 22.5469 54.9535 22.4842C55.1728 22.4015 55.8334 22.259 56.333 22.259L56.3719 22.3416C56.172 22.9974 55.9916 23.4707 55.6335 24.4572C54.4955 27.7018 53.9348 29.6092 53.8349 29.9599C53.796 30.1253 53.8154 30.2279 53.9154 30.2279C54.0958 30.2279 54.8341 29.632 55.195 29.1616C55.2949 29.1616 55.356 29.2015 55.356 29.327C55.0562 29.9827 53.9959 30.9493 53.3963 30.9493C53.1354 30.9493 53.016 30.7639 53.016 30.5786C53.016 30.4361 53.0549 30.2308 53.177 29.9L53.5767 28.7083L53.5379 28.6883C53.1576 29.2015 52.7773 29.7147 52.3582 30.1253V30.1196ZM52.3582 26.3618V27.2029C51.8974 27.756 51.3589 28.5372 51.0786 29.1131C50.7178 29.8715 50.7178 30.0768 50.7178 30.2422C50.7178 30.3847 50.8371 30.4874 50.937 30.4874C51.1175 30.4874 51.6365 30.3021 52.3554 29.5836V30.1167C51.8752 30.61 51.3367 30.9379 50.7178 30.9379C50.2792 30.9379 50.0377 30.5672 50.0377 30.0768C50.0377 29.2357 50.6567 27.8187 51.5754 26.9776C51.8364 26.7324 52.0945 26.5271 52.3554 26.3618H52.3582ZM44.5251 29.8117V29.4211C45.3246 28.5999 45.7853 27.6362 45.9435 26.9577C45.863 26.7324 45.6632 26.5271 45.3634 26.5271C45.0831 26.5271 44.9026 26.6697 44.5446 27.0004L44.5251 27.0204V26.5271C44.5862 26.4872 44.6251 26.4444 44.6861 26.4245C45.1469 26.1565 45.4245 26.0766 45.7243 26.0766C45.863 26.0766 45.9435 26.1166 46.0046 26.1593C46.0657 26.1793 46.185 26.2819 46.2433 26.4045L46.5625 25.6461C46.7624 25.5435 47.0621 25.6661 47.1426 25.8115C46.9622 26.262 45.9435 28.8907 45.5827 29.9799C45.5022 30.1852 45.5633 30.2678 45.6632 30.2678C45.863 30.2678 46.2017 30.0626 46.8623 29.4667C46.9428 29.4667 47.0233 29.5294 47.0233 29.6092C46.5237 30.2878 45.7048 30.9436 45.0636 30.9436C44.8027 30.9436 44.725 30.7183 44.725 30.6356C44.725 30.553 44.7639 30.4304 44.8444 30.1624L45.2246 29.096L45.2052 29.0761C44.9859 29.3441 44.7666 29.5893 44.5251 29.8145V29.8117ZM44.5251 26.5271V27.0204C43.7868 27.7189 43.0873 29.2585 43.0873 30.0797C43.0873 30.2222 43.1678 30.3249 43.2677 30.3249C43.3871 30.3249 43.7285 30.1595 44.4058 29.5437L44.5251 29.4211V29.8117C43.8257 30.4902 43.0457 30.9407 42.646 30.9407C42.3074 30.9407 42.1269 30.6128 42.1269 30.285C42.1269 29.997 42.3879 29.0533 43.1456 27.9641C43.6452 27.2656 44.106 26.8151 44.5251 26.5271ZM39.0292 30.8181V29.2585C39.1097 29.4838 39.2097 29.709 39.268 29.8345C39.4067 30.1025 39.5289 30.2251 39.6482 30.2251C39.787 30.2251 40.0091 30.0825 40.3477 29.672C40.4476 29.672 40.4865 29.7119 40.4865 29.8145C40.0868 30.7183 39.5067 30.9436 39.3068 30.9436C39.2069 30.9436 39.107 30.9037 39.0265 30.821L39.0292 30.8181ZM39.0292 28.4574V28.0668C39.1902 27.9841 39.3679 27.8615 39.5677 27.7389C40.0674 27.411 40.3061 26.9805 40.3061 26.7324C40.3061 26.5899 40.2061 26.4245 39.9452 26.4245C39.6843 26.4245 39.3457 26.6098 39.0265 26.855V26.4444C39.0459 26.4245 39.0875 26.3817 39.1264 26.3618C39.4456 26.1166 39.8647 25.9113 40.3644 25.9113C41.0444 25.9113 41.2026 26.3218 41.2026 26.567C41.2026 26.7096 41.1638 27.0403 40.7224 27.4281C40.2228 27.9213 39.6843 28.312 39.0237 28.4545L39.0292 28.4574ZM39.0292 24.3317V22.4015C39.2097 22.3616 39.4095 22.2989 39.6094 22.259L39.6704 22.3217C39.5899 22.6695 39.4511 23.0601 39.1097 24.0865L39.0292 24.3317ZM39.0292 22.4015V24.3317L37.9106 27.5963H37.9301C38.2493 27.1658 38.6101 26.7752 39.0292 26.4473V26.8579C38.9487 26.9206 38.8905 26.9805 38.81 27.0432C38.3908 27.4138 37.8912 27.9869 37.7496 28.3376C37.7108 28.4602 37.7108 28.5429 37.869 28.5229C38.0494 28.503 38.4685 28.3804 39.0292 28.0725V28.4631C38.9682 28.483 38.9293 28.483 38.8683 28.503C38.7878 28.5429 38.8072 28.6455 38.8488 28.7282C38.8877 28.8708 38.9487 29.0761 39.0292 29.2614V30.821C38.9487 30.7383 38.8683 30.6356 38.7905 30.4731C38.6517 30.2051 38.352 29.5294 38.252 29.2015C38.1521 28.8936 38.0328 28.751 37.8135 28.8109C37.5942 28.8708 37.5331 28.9135 37.3944 29.2842L36.7948 30.8039C36.7337 30.9065 36.6949 30.9464 36.5949 30.9464C36.4562 30.9464 36.1147 30.9265 36.2147 30.6385L38.352 24.0694C38.6129 23.2483 38.6323 23.0829 38.4325 22.9803L38.2132 22.8777C38.1521 22.8377 38.1327 22.7551 38.1938 22.6923C38.413 22.5897 38.7128 22.487 39.032 22.4044L39.0292 22.4015ZM22.3223 29.8117V29.4211C23.1217 28.5999 23.5824 27.6362 23.7601 26.9577C23.6796 26.7324 23.4797 26.5271 23.1799 26.5271C22.8996 26.5271 22.6997 26.6697 22.3417 27.0004C22.3417 27.0004 22.3417 27.0204 22.3223 27.0204V26.5271C22.3833 26.4872 22.4416 26.4444 22.4832 26.4245C22.944 26.1565 23.2216 26.0766 23.5436 26.0766C23.6629 26.0766 23.7434 26.1166 23.8239 26.1593C23.8628 26.1793 23.9849 26.2819 24.0432 26.4045L24.3624 25.6461C24.5622 25.5435 24.862 25.6661 24.9425 25.8115C24.7621 26.262 23.7628 28.8907 23.3826 29.9799C23.3215 30.1852 23.3631 30.2678 23.4631 30.2678C23.6629 30.2678 24.0016 30.0626 24.6622 29.4667C24.7427 29.4667 24.8232 29.5294 24.8232 29.6092C24.343 30.2878 23.5047 30.9436 22.8635 30.9436C22.6026 30.9436 22.5443 30.7183 22.5443 30.6356C22.5443 30.553 22.5637 30.4304 22.6442 30.1624L23.0439 29.096L23.0051 29.0761C22.7858 29.3441 22.5665 29.5893 22.325 29.8145L22.3223 29.8117ZM27.0576 29.0932C26.8966 29.5437 26.7773 29.977 26.7773 30.2222C26.7773 30.5929 26.9965 30.9407 27.2963 30.9407C27.5767 30.9407 28.2345 30.8381 29.1144 30.0797C30.1137 29.2186 30.9936 27.5136 30.9936 26.6526C30.9936 26.3447 30.9131 25.9141 30.5328 25.9141C30.3135 25.9141 30.1331 26.0995 30.1137 26.3447C30.1942 26.6127 30.2136 26.8978 30.2136 27.1857C30.2136 27.7389 29.8944 28.6855 29.2143 29.4638C28.6953 30.0797 28.2151 30.3477 27.9347 30.3477C27.696 30.3477 27.6155 30.1224 27.6155 29.9172C27.6155 29.7746 27.6544 29.5265 27.7155 29.364L28.7147 26.6953C28.8951 26.2648 28.6342 25.9141 28.3539 25.9141C27.6738 25.9141 26.8938 26.6953 26.5163 27.2285C26.5163 27.3312 26.5968 27.4338 26.6968 27.4338C27.0576 27.0432 27.5572 26.6127 27.7765 26.6127C27.9375 26.6127 27.9375 26.7153 27.857 26.9605L27.0576 29.096V29.0932ZM34.2911 25.9113C34.1301 25.9113 33.772 26.0139 33.4306 26.3019C32.931 26.7524 32.7312 27.1031 32.7312 27.5535C32.7312 27.7588 32.8311 28.1694 33.1309 28.6626C33.4306 29.1559 33.5694 29.5237 33.5694 29.709C33.5694 30.0996 33.2891 30.4076 33.0087 30.4076C32.709 30.4076 32.3481 30.0996 32.2093 29.9143C32.1094 29.8316 31.99 29.8316 31.8901 29.9143C31.7708 30.0569 31.7097 30.2023 31.7097 30.3249C31.7097 30.5929 31.99 30.9407 32.4286 30.9407C32.8672 30.9407 33.2891 30.7982 33.5889 30.5102C34.0274 30.1395 34.1884 29.6891 34.2078 29.3811C34.2273 28.848 34.0468 28.54 33.7693 28.0468C33.4306 27.4709 33.3696 27.2057 33.3696 26.9577C33.3696 26.7723 33.5084 26.4844 33.8498 26.4844C34.2106 26.4844 34.3494 26.6697 34.5492 26.855C34.6297 26.9577 34.688 26.9776 34.7685 26.9577C34.8685 26.9177 34.9878 26.7723 34.9878 26.587C34.9878 26.299 34.7075 25.9084 34.2883 25.9084L34.2911 25.9113ZM22.3195 26.5271V27.0204C21.5811 27.7189 20.9011 29.2585 20.9011 30.0797C20.9011 30.2222 20.9622 30.3249 21.0621 30.3249C21.1814 30.3249 21.5423 30.1595 22.2001 29.5437L22.3195 29.4211V29.8117C21.62 30.4902 20.84 30.9407 20.4403 30.9407C20.1211 30.9407 19.9213 30.6128 19.9213 30.285C19.9213 29.997 20.1822 29.0533 20.9594 27.9641C21.4396 27.2656 21.8976 26.8151 22.3195 26.5271ZM16.4627 30.6528V30.2023C16.6432 30.0597 16.8236 29.8544 17.0012 29.5665C17.5619 28.6826 17.6813 27.8615 17.6813 27.3283C17.6813 26.7324 17.2621 26.4444 16.7625 26.4444C16.6431 26.4444 16.5432 26.4444 16.4627 26.4644V25.15C16.6237 25.1899 16.7819 25.2726 16.8014 25.3753L16.5627 26.0938C16.6626 26.0938 16.7819 26.0738 17.0012 26.0738C17.5397 26.0738 18.5806 26.299 18.5806 27.4281C18.5806 28.5572 17.92 29.5009 17.0429 30.2621C16.8624 30.4275 16.6626 30.5501 16.4627 30.6528ZM16.4627 25.15V26.4844L15.2636 29.9343C15.2026 30.0768 15.2248 30.2023 15.2636 30.2621C15.3441 30.3847 15.5245 30.5501 15.7022 30.5501C15.8021 30.5501 16.1213 30.4674 16.4627 30.2023V30.6528C15.902 30.9208 15.4246 30.9407 15.383 30.9407C15.2831 30.9407 15.1831 30.9208 15.0221 30.878C14.9222 30.898 14.8834 30.9806 14.8417 31.0833L14.3615 32.5003C14.0423 33.4241 14.0617 33.5267 14.4614 33.5894L14.9222 33.6522C14.9833 33.7348 14.9833 33.8774 14.8833 33.9202C14.0034 33.9202 13.1236 33.9829 12.3464 34.0029C12.3464 33.9829 12.3269 33.9829 12.3269 33.9829V33.7577L12.3464 33.7377L12.6073 33.6978C13.2679 33.5752 13.3067 33.2872 13.4872 32.8139L15.6467 26.5727C15.2275 26.6953 14.9666 26.8179 14.467 27.066C14.3865 27.046 14.3282 26.9434 14.3476 26.8408C14.7668 26.5328 15.2275 26.3275 15.7855 26.185L16.1463 25.2213C16.2074 25.1586 16.3461 25.1386 16.4655 25.1586L16.4627 25.15ZM12.3269 26.3418C12.388 26.1764 12.3658 26.0966 12.3269 26.0339V26.3418ZM12.3269 24.269V23.0772C12.3658 23.0772 12.4074 23.0573 12.4463 23.0573C12.7072 23.0573 12.846 23.2626 12.846 23.5306C12.846 23.8585 12.6267 24.2091 12.3269 24.269ZM3.69447 28.312C3.69447 27.2228 4.19409 26.1166 4.5938 25.3154C5.09342 24.3289 5.75404 23.4678 6.11211 22.9946C6.09268 22.9119 6.01218 22.872 5.95112 22.872C5.81233 22.9546 5.73184 22.9746 5.55142 22.9746H3.91375C2.33437 22.9746 1.21576 23.3452 0.616205 24.1037C0.255363 24.5769 0.116577 25.0075 0.116577 25.3753C0.116577 25.9084 0.455214 26.2363 0.777196 26.2363C1.01591 26.2363 1.29625 26.0938 1.29625 25.7231C1.29625 25.5805 1.25739 25.4551 1.11583 25.3753C0.954841 25.3125 0.6967 25.0873 0.6967 24.7794C0.6967 24.5741 0.857691 24.2462 1.11583 24.0808C1.37397 23.9155 1.99573 23.6703 2.91449 23.6703H3.95261C4.59102 23.6703 4.99072 23.6304 5.23221 23.5876C4.37174 24.7794 3.91375 25.4979 3.41412 26.5642C2.97556 27.468 2.81457 28.3091 2.81457 28.905C2.81457 29.9314 3.41412 30.9778 4.69372 30.9778C5.33213 30.9778 6.33139 30.7326 7.45278 29.6235C9.01272 28.1038 9.83156 25.6832 9.83156 24.2861C9.83156 23.5477 9.73163 22.7265 9.19315 22.7265C8.89337 22.7265 8.75458 22.9946 8.75458 23.177C8.75458 23.3424 8.81565 23.465 8.83508 23.5676C8.97386 23.9155 9.05436 24.3489 9.05436 25.0873C9.05436 26.031 8.65466 27.468 7.93575 28.4545C7.19741 29.4182 6.17595 30.2621 5.23776 30.2621C4.17744 30.2621 3.70002 29.5237 3.70002 28.312H3.69447ZM12.3269 23.0772V24.269H12.227C11.9272 24.269 11.8079 24.0238 11.8079 23.8185C11.8079 23.5733 11.9689 23.14 12.3269 23.0801V23.0772ZM12.3269 26.0339V26.3418C12.3075 26.4045 12.2881 26.4644 12.2464 26.5471L10.8669 29.9343C10.828 30.0569 10.8058 30.2023 10.9058 30.2023C11.1056 30.2023 11.7246 29.7917 12.1049 29.3184C12.2242 29.3384 12.2853 29.4211 12.2853 29.5237C12.1049 29.8715 10.9058 30.9407 10.1064 30.9407C10.0453 30.9407 9.987 30.9208 9.92593 30.8381C9.86487 30.7554 9.82601 30.6528 9.88707 30.5102L11.3665 26.8978C11.4054 26.7752 11.4054 26.6725 11.3277 26.6725C11.2499 26.6725 10.9474 26.8151 10.3673 27.3083C10.2673 27.2884 10.1868 27.2057 10.2285 27.1031C10.8669 26.3447 11.7468 25.9113 12.1271 25.9113C12.227 25.9113 12.2659 25.974 12.3269 26.0339ZM12.3269 33.752V33.9772C12.2881 33.8945 12.2881 33.8118 12.3269 33.752Z" fill="#231F20"/>
</g>
<defs>
<clipPath id="clip0_16_13323">
<rect width="82" height="34" fill="white"/>
</clipPath>
</defs>
</svg>
