<svg width="46" height="33" viewBox="0 0 46 33" fill="none" xmlns="http://www.w3.org/2000/svg">
<g clip-path="url(#clip0_669_254)">
<path d="M9.76375 21.3564C8.89582 26.0999 7.45689 29.5043 6.30347 31.6037C5.85809 32.4321 6.77169 33.3399 7.58251 32.8746C17.2096 27.3028 21.435 19.1663 21.9489 12.6525C22.4058 7.02389 18.5458 1.22506 12.6987 0.169697C6.84021 -0.885668 1.23296 2.97265 0.170896 8.79418C-0.93685 14.8881 3.37993 20.7436 9.75233 21.3564H9.76375Z" fill="#AB8844"/>
<path d="M33.7691 21.3569C32.9012 26.1004 31.4623 29.5048 30.3088 31.6042C29.8635 32.4326 30.7771 33.3404 31.5879 32.8751C41.215 27.3033 45.4404 19.1667 45.9543 12.653C46.4111 7.02438 42.5511 1.2369 36.6927 0.181538C30.8456 -0.873827 25.2383 2.98449 24.1763 8.80602C23.0685 14.8999 27.3853 20.7555 33.7577 21.3683L33.7691 21.3569Z" fill="#AB8844"/>
</g>
<defs>
<clipPath id="clip0_669_254">
<rect width="46" height="33" fill="white"/>
</clipPath>
</defs>
</svg>
