<svg width="46" height="33" viewBox="0 0 46 33" fill="none" xmlns="http://www.w3.org/2000/svg">
<g clip-path="url(#clip0_669_312)">
<path d="M36.2363 11.6436C37.1042 6.90011 38.5431 3.49571 39.6965 1.39633C40.1419 0.56792 39.2283 -0.339917 38.4175 0.12535C28.7904 5.69722 24.565 13.8337 24.0511 20.3475C23.5943 25.9761 27.4542 31.7749 33.3013 32.8303C39.1598 33.8857 44.767 30.0273 45.8291 24.2058C46.9369 18.1119 42.6201 12.2564 36.2477 11.6436L36.2363 11.6436Z" fill="#AB8844"/>
<path d="M12.2309 11.6431C13.0988 6.89962 14.5377 3.49521 15.6912 1.39583C16.1365 0.567428 15.2229 -0.340409 14.4121 0.124858C4.78501 5.69673 0.559583 13.8332 0.0456802 20.347C-0.411123 25.9756 3.44886 31.7631 9.30735 32.8185C15.1544 33.8738 20.7617 30.0155 21.8237 24.194C22.9315 18.1001 18.6147 12.2445 12.2423 11.6317L12.2309 11.6431Z" fill="#AB8844"/>
</g>
<defs>
<clipPath id="clip0_669_312">
<rect width="46" height="33" fill="white" transform="translate(46 33) rotate(-180)"/>
</clipPath>
</defs>
</svg>
